# Blender v2.78 (sub 0) OBJ File: 'Geschenk.blend'
# www.blender.org
mtllib Geschenk.mtl
o Cube_Cube.002
v 0.494385 -0.494385 0.494385
v 0.494385 0.494385 0.494385
v 0.494385 -0.494385 -0.494385
v 0.494385 0.494385 -0.494385
v 0.494385 0.494385 -0.164795
v 0.494385 0.494385 0.164795
v 0.494385 -0.494385 -0.164795
v 0.494385 -0.494385 0.164795
v 0.146877 -0.494385 -0.494385
v 0.146877 0.494385 -0.494385
v 0.146877 -0.494385 0.494385
v 0.146877 0.494385 0.494385
v 0.146877 -0.494385 -0.164795
v 0.146877 -0.494385 0.164795
v 0.146877 0.494385 -0.164795
v 0.146877 0.494385 0.164795
v 0.200283 0.614550 -0.164795
v 0.200283 0.614550 0.164795
v 0.342146 0.710516 -0.164795
v 0.342146 0.710516 0.164795
v 0.517387 0.860723 -0.164795
v 0.517387 0.860723 0.164795
v 0.592491 1.161137 -0.164795
v 0.592491 1.161137 0.164795
v 0.317111 1.315516 -0.164795
v 0.317111 1.315516 0.164795
v 0.108490 1.219551 -0.164795
v 0.108490 1.219551 0.164795
v 0.037559 0.877413 -0.164795
v 0.037559 0.877413 0.164795
v 0.033387 0.593688 -0.164795
v 0.033387 0.593688 0.164795
v 0.000000 -0.494385 0.494385
v 0.000000 0.494385 0.494385
v 0.000000 -0.494385 -0.494385
v 0.000000 0.494385 -0.494385
v -0.494385 -0.494385 0.494385
v -0.494385 0.494385 0.494385
v -0.494385 -0.494385 -0.494385
v -0.494385 0.494385 -0.494385
v 0.000000 -0.494385 -0.164795
v 0.000000 -0.494385 0.164795
v 0.000000 0.494385 0.164795
v 0.000000 0.494385 -0.164795
v -0.494385 0.494385 -0.164795
v -0.494385 0.494385 0.164795
v -0.494385 -0.494385 -0.164795
v -0.494385 -0.494385 0.164795
v -0.146877 -0.494385 -0.494385
v -0.146877 0.494385 -0.494385
v -0.146877 -0.494385 0.494385
v -0.146877 0.494385 0.494385
v -0.146877 -0.494385 -0.164795
v -0.146877 -0.494385 0.164795
v -0.146877 0.494385 -0.164795
v -0.146877 0.494385 0.164795
v -0.200283 0.614550 -0.164795
v -0.200283 0.614550 0.164795
v -0.342146 0.710516 -0.164795
v -0.342146 0.710516 0.164795
v -0.517387 0.860723 -0.164795
v -0.517387 0.860723 0.164795
v -0.592491 1.161137 -0.164795
v -0.592491 1.161137 0.164795
v -0.317111 1.315516 -0.164795
v -0.317111 1.315516 0.164795
v -0.108490 1.219551 -0.164795
v -0.108490 1.219551 0.164795
v -0.037559 0.877413 -0.164795
v -0.037559 0.877413 0.164795
v -0.033387 0.593688 -0.164795
v -0.033387 0.593688 0.164795
v 0.478972 -0.478972 0.478972
v 0.478972 0.478972 0.478972
v 0.478972 -0.478972 -0.478972
v 0.478972 0.478972 -0.478972
v 0.475508 0.475508 -0.164795
v 0.475508 0.475508 0.164795
v 0.475508 -0.475508 -0.164795
v 0.475508 -0.475508 0.164795
v 0.146877 -0.475508 -0.475508
v 0.146877 0.475508 -0.475508
v 0.146877 -0.475508 0.475508
v 0.146877 0.475508 0.475508
v 0.146877 -0.467688 -0.164795
v 0.146877 -0.467688 0.164795
v 0.144488 0.467796 -0.164795
v 0.144488 0.467796 0.164795
v 0.179815 0.631690 -0.164795
v 0.179815 0.631690 0.164795
v 0.325953 0.731741 -0.164795
v 0.325953 0.731741 0.164795
v 0.494678 0.874758 -0.164795
v 0.494678 0.874758 0.164795
v 0.567980 1.150558 -0.164795
v 0.567980 1.150558 0.164795
v 0.316046 1.288841 -0.164795
v 0.316046 1.288841 0.164795
v 0.129381 1.202930 -0.164795
v 0.129381 1.202930 0.164795
v 0.064096 0.874494 -0.164795
v 0.064096 0.874494 0.164795
v 0.048284 0.615841 -0.164795
v 0.048284 0.615841 0.164795
v 0.000000 -0.475508 0.475508
v 0.000000 0.475508 0.475508
v 0.000000 -0.475508 -0.475508
v 0.000000 0.475508 -0.475508
v -0.478972 -0.478972 0.478972
v -0.478972 0.478972 0.478972
v -0.478972 -0.478972 -0.478972
v -0.478972 0.478972 -0.478972
v 0.000000 -0.467688 -0.164795
v 0.000000 -0.467688 0.164795
v 0.000000 0.467688 0.164795
v 0.000000 0.467688 -0.164795
v -0.475508 0.475508 -0.164795
v -0.475508 0.475508 0.164795
v -0.475508 -0.475508 -0.164795
v -0.475508 -0.475508 0.164795
v -0.146877 -0.475508 -0.475508
v -0.146877 0.475508 -0.475508
v -0.146877 -0.475508 0.475508
v -0.146877 0.475508 0.475508
v -0.146877 -0.467688 -0.164795
v -0.146877 -0.467688 0.164795
v -0.144488 0.467796 -0.164795
v -0.144488 0.467796 0.164795
v -0.179815 0.631690 -0.164795
v -0.179815 0.631690 0.164795
v -0.325953 0.731741 -0.164795
v -0.325953 0.731741 0.164795
v -0.494678 0.874758 -0.164795
v -0.494678 0.874758 0.164795
v -0.567980 1.150558 -0.164795
v -0.567980 1.150558 0.164795
v -0.316046 1.288841 -0.164795
v -0.316046 1.288841 0.164795
v -0.129381 1.202930 -0.164795
v -0.129381 1.202930 0.164795
v -0.064096 0.874494 -0.164795
v -0.064096 0.874494 0.164795
v -0.048284 0.615841 -0.164795
v -0.048284 0.615841 0.164795
vn 0.0000 0.0000 1.0000
vn 0.0000 1.0000 0.0000
vn 0.0000 -1.0000 0.0000
vn 1.0000 0.0000 0.0000
vn 0.0000 0.0000 -1.0000
vn 0.9138 -0.4061 0.0000
vn 0.5603 -0.8283 0.0000
vn 0.6508 -0.7593 0.0000
vn 0.9701 -0.2425 0.0000
vn 0.4890 0.8723 0.0000
vn -0.4179 0.9085 0.0000
vn -0.9792 0.2030 0.0000
vn -0.9999 0.0147 0.0000
vn -0.6585 -0.7526 0.0000
vn 0.9479 -0.3187 0.0000
vn -1.0000 0.0000 0.0000
vn -0.9138 -0.4061 0.0000
vn -0.5603 -0.8283 0.0000
vn -0.6508 -0.7593 0.0000
vn -0.9701 -0.2425 0.0000
vn -0.4890 0.8723 0.0000
vn 0.4179 0.9085 0.0000
vn 0.9792 0.2030 0.0000
vn 0.9999 0.0147 0.0000
vn 0.6585 -0.7526 0.0000
vn -0.9479 -0.3187 0.0000
vn 0.0007 -0.9997 0.0252
vn 0.0238 0.9997 0.0000
vn 0.0007 -0.9997 -0.0252
vn 0.0007 -1.0000 0.0000
vn 0.0233 -0.9997 0.0000
vn 0.0000 0.9997 -0.0252
vn 0.0000 0.9997 0.0252
vn -0.9775 0.2107 0.0000
vn -0.5649 0.8251 0.0000
vn -0.6466 0.7628 0.0000
vn -0.9664 0.2569 0.0000
vn -0.4812 -0.8766 0.0000
vn 0.4181 -0.9084 0.0000
vn 0.9808 -0.1950 0.0000
vn 0.9981 -0.0610 0.0000
vn 0.8385 0.5449 0.0000
vn -0.9508 0.3099 0.0000
vn 0.0000 -0.9997 0.0248
vn -0.0238 0.9997 0.0000
vn -0.0007 -0.9997 -0.0252
vn -0.0007 -1.0000 0.0000
vn -0.0233 -0.9997 0.0000
vn 0.9775 0.2107 0.0000
vn 0.5649 0.8251 0.0000
vn 0.6466 0.7628 0.0000
vn 0.9664 0.2569 0.0000
vn 0.4812 -0.8766 0.0000
vn -0.4181 -0.9084 0.0000
vn -0.9808 -0.1950 0.0000
vn -0.9981 -0.0610 0.0000
vn -0.8385 0.5449 0.0000
vn 0.9508 0.3099 0.0000
vn 0.0000 -0.9997 -0.0248
vn -0.0007 -0.9997 0.0252
vn -0.9999 0.0000 0.0110
vn 0.0103 0.9999 0.0109
vn 0.0104 0.0000 0.9999
vn 0.0103 0.9999 -0.0109
vn -0.9999 0.0000 -0.0110
vn 0.0233 -0.9994 -0.0246
vn 0.0233 -0.9994 0.0246
vn 0.0104 0.0000 -0.9999
vn 0.9999 0.0000 0.0110
vn -0.0103 0.9999 0.0109
vn -0.0104 0.0000 0.9999
vn -0.0238 0.9994 -0.0252
vn 0.9999 0.0000 -0.0110
vn -0.0233 -0.9994 -0.0246
vn -0.0103 -0.9999 0.0109
vn -0.0104 0.0000 -0.9999
vn 0.0238 0.9994 0.0252
vn 0.0238 0.9994 -0.0252
vn 0.0103 -0.9999 -0.0109
vn 0.0103 -0.9999 0.0109
vn -0.0238 0.9994 0.0252
vn -0.0103 0.9999 -0.0109
vn -0.0103 -0.9999 -0.0109
vn -0.0233 -0.9994 0.0246
usemtl Rot
s off
f 12//1 34//1 33//1
f 43//2 34//2 12//2
f 7//3 8//3 14//3
f 36//2 44//2 15//2
f 44//2 43//2 16//2
f 5//4 6//4 8//4
f 15//2 16//2 6//2
f 13//3 14//3 42//3
f 9//3 13//3 41//3
f 36//5 10//5 9//5
f 14//3 11//3 33//3
f 15//6 17//6 18//6
f 17//7 19//7 20//7
f 19//8 21//8 22//8
f 22//9 21//9 23//9
f 23//10 25//10 26//10
f 25//11 27//11 28//11
f 27//12 29//12 30//12
f 29//13 31//13 32//13
f 31//14 15//14 16//14
f 32//15 43//15 44//15
f 33//1 34//1 52//1
f 52//2 34//2 43//2
f 54//3 48//3 47//3
f 55//2 44//2 36//2
f 56//2 43//2 44//2
f 48//16 46//16 45//16
f 46//2 56//2 55//2
f 42//3 54//3 53//3
f 41//3 53//3 49//3
f 49//5 50//5 36//5
f 33//3 51//3 54//3
f 58//17 57//17 55//17
f 60//18 59//18 57//18
f 62//19 61//19 59//19
f 62//20 64//20 63//20
f 66//21 65//21 63//21
f 68//22 67//22 65//22
f 70//23 69//23 67//23
f 72//24 71//24 69//24
f 56//25 55//25 71//25
f 44//26 43//26 72//26
f 106//5 84//5 83//5
f 106//27 115//27 88//27
f 80//28 79//28 85//28
f 87//29 116//29 108//29
f 115//30 116//30 87//30
f 78//16 77//16 79//16
f 88//31 87//31 77//31
f 86//2 85//2 113//2
f 85//32 81//32 107//32
f 82//1 108//1 107//1
f 83//33 86//33 114//33
f 89//34 87//34 88//34
f 91//35 89//35 90//35
f 93//36 91//36 92//36
f 95//37 93//37 94//37
f 97//38 95//38 96//38
f 99//39 97//39 98//39
f 102//40 101//40 99//40
f 104//41 103//41 101//41
f 87//42 103//42 104//42
f 115//43 104//43 103//43
f 106//5 105//5 123//5
f 106//44 124//44 128//44
f 120//45 126//45 125//45
f 108//46 116//46 127//46
f 115//47 128//47 127//47
f 118//4 120//4 119//4
f 128//48 118//48 117//48
f 126//2 114//2 113//2
f 125//32 113//32 107//32
f 122//1 121//1 107//1
f 123//33 105//33 114//33
f 129//49 130//49 128//49
f 131//50 132//50 130//50
f 133//51 134//51 132//51
f 135//52 136//52 134//52
f 137//53 138//53 136//53
f 139//54 140//54 138//54
f 139//55 141//55 142//55
f 141//56 143//56 144//56
f 127//57 128//57 144//57
f 115//58 116//58 143//58
f 15//1 87//1 89//1
f 16//1 18//1 90//1
f 17//5 89//5 91//5
f 18//1 20//1 92//1
f 19//5 91//5 93//5
f 20//1 22//1 94//1
f 21//5 93//5 95//5
f 22//1 24//1 96//1
f 25//5 23//5 95//5
f 26//1 98//1 96//1
f 27//5 25//5 97//5
f 28//1 100//1 98//1
f 29//5 27//5 99//5
f 30//1 102//1 100//1
f 29//5 101//5 103//5
f 30//1 32//1 104//1
f 15//5 31//5 103//5
f 16//5 88//5 104//5
f 31//1 44//1 116//1
f 32//5 104//5 115//5
f 55//5 57//5 129//5
f 56//5 128//5 130//5
f 57//5 59//5 131//5
f 58//1 130//1 132//1
f 59//5 61//5 133//5
f 60//1 132//1 134//1
f 61//5 63//5 135//5
f 62//1 134//1 136//1
f 65//5 137//5 135//5
f 66//1 64//1 136//1
f 67//5 139//5 137//5
f 68//1 66//1 138//1
f 69//5 141//5 139//5
f 70//1 68//1 140//1
f 69//5 71//5 143//5
f 70//1 142//1 144//1
f 55//1 127//1 143//1
f 56//1 72//1 144//1
f 71//1 143//1 116//1
f 72//5 43//5 115//5
f 11//1 12//1 33//1
f 16//2 43//2 12//2
f 13//3 7//3 14//3
f 10//2 36//2 15//2
f 15//2 44//2 16//2
f 7//4 5//4 8//4
f 5//2 15//2 6//2
f 41//3 13//3 42//3
f 35//3 9//3 41//3
f 35//5 36//5 9//5
f 42//3 14//3 33//3
f 16//6 15//6 18//6
f 18//7 17//7 20//7
f 20//8 19//8 22//8
f 24//9 22//9 23//9
f 24//10 23//10 26//10
f 26//11 25//11 28//11
f 28//12 27//12 30//12
f 30//13 29//13 32//13
f 32//14 31//14 16//14
f 31//15 32//15 44//15
f 51//1 33//1 52//1
f 56//2 52//2 43//2
f 53//3 54//3 47//3
f 50//2 55//2 36//2
f 55//2 56//2 44//2
f 47//16 48//16 45//16
f 45//2 46//2 55//2
f 41//3 42//3 53//3
f 35//3 41//3 49//3
f 35//5 49//5 36//5
f 42//3 33//3 54//3
f 56//17 58//17 55//17
f 58//18 60//18 57//18
f 60//19 62//19 59//19
f 61//20 62//20 63//20
f 64//21 66//21 63//21
f 66//22 68//22 65//22
f 68//23 70//23 67//23
f 70//24 72//24 69//24
f 72//25 56//25 71//25
f 71//26 44//26 72//26
f 105//5 106//5 83//5
f 84//44 106//44 88//44
f 86//28 80//28 85//28
f 82//59 87//59 108//59
f 88//30 115//30 87//30
f 80//16 78//16 79//16
f 78//31 88//31 77//31
f 114//2 86//2 113//2
f 113//32 85//32 107//32
f 81//1 82//1 107//1
f 105//33 83//33 114//33
f 90//34 89//34 88//34
f 92//35 91//35 90//35
f 94//36 93//36 92//36
f 96//37 95//37 94//37
f 98//38 97//38 96//38
f 100//39 99//39 98//39
f 100//40 102//40 99//40
f 102//41 104//41 101//41
f 88//42 87//42 104//42
f 116//43 115//43 103//43
f 124//5 106//5 123//5
f 115//60 106//60 128//60
f 119//45 120//45 125//45
f 122//59 108//59 127//59
f 116//47 115//47 127//47
f 117//4 118//4 119//4
f 127//48 128//48 117//48
f 125//2 126//2 113//2
f 121//32 125//32 107//32
f 108//1 122//1 107//1
f 126//33 123//33 114//33
f 127//49 129//49 128//49
f 129//50 131//50 130//50
f 131//51 133//51 132//51
f 133//52 135//52 134//52
f 135//53 137//53 136//53
f 137//54 139//54 138//54
f 140//55 139//55 142//55
f 142//56 141//56 144//56
f 143//57 127//57 144//57
f 144//58 115//58 143//58
f 17//5 15//5 89//5
f 88//5 16//5 90//5
f 19//5 17//5 91//5
f 90//1 18//1 92//1
f 21//5 19//5 93//5
f 92//1 20//1 94//1
f 23//5 21//5 95//5
f 94//1 22//1 96//1
f 97//5 25//5 95//5
f 24//1 26//1 96//1
f 99//5 27//5 97//5
f 26//1 28//1 98//1
f 101//5 29//5 99//5
f 28//1 30//1 100//1
f 31//5 29//5 103//5
f 102//1 30//1 104//1
f 87//1 15//1 103//1
f 32//1 16//1 104//1
f 103//1 31//1 116//1
f 43//5 32//5 115//5
f 127//1 55//1 129//1
f 58//1 56//1 130//1
f 129//5 57//5 131//5
f 60//1 58//1 132//1
f 131//5 59//5 133//5
f 62//1 60//1 134//1
f 133//5 61//5 135//5
f 64//1 62//1 136//1
f 63//5 65//5 135//5
f 138//1 66//1 136//1
f 65//5 67//5 137//5
f 140//1 68//1 138//1
f 67//5 69//5 139//5
f 142//1 70//1 140//1
f 141//5 69//5 143//5
f 72//1 70//1 144//1
f 71//5 55//5 143//5
f 128//5 56//5 144//5
f 44//1 71//1 116//1
f 144//5 72//5 115//5
usemtl Blau
f 6//4 2//4 1//4
f 8//3 1//3 11//3
f 10//5 4//5 3//5
f 3//3 7//3 13//3
f 4//4 5//4 7//4
f 10//2 15//2 5//2
f 16//2 12//2 2//2
f 2//1 12//1 11//1
f 37//16 38//16 46//16
f 51//3 37//3 48//3
f 39//5 40//5 50//5
f 53//3 47//3 39//3
f 47//16 45//16 40//16
f 45//2 55//2 50//2
f 38//2 52//2 56//2
f 51//1 52//1 38//1
f 74//61 78//61 80//61
f 83//62 73//62 80//62
f 76//63 82//63 81//63
f 79//64 75//64 81//64
f 77//65 76//65 75//65
f 77//66 87//66 82//66
f 84//67 88//67 78//67
f 84//68 74//68 73//68
f 110//69 109//69 120//69
f 120//70 109//70 123//70
f 112//71 111//71 121//71
f 119//72 125//72 121//72
f 117//73 119//73 111//73
f 122//74 127//74 117//74
f 124//75 110//75 118//75
f 124//76 123//76 109//76
f 8//4 6//4 1//4
f 14//3 8//3 11//3
f 9//5 10//5 3//5
f 9//3 3//3 13//3
f 3//4 4//4 7//4
f 4//2 10//2 5//2
f 6//2 16//2 2//2
f 1//1 2//1 11//1
f 48//16 37//16 46//16
f 54//3 51//3 48//3
f 49//5 39//5 50//5
f 49//3 53//3 39//3
f 39//16 47//16 40//16
f 40//2 45//2 50//2
f 46//2 38//2 56//2
f 37//1 51//1 38//1
f 73//61 74//61 80//61
f 86//77 83//77 80//77
f 75//63 76//63 81//63
f 85//78 79//78 81//78
f 79//65 77//65 75//65
f 76//79 77//79 82//79
f 74//80 84//80 78//80
f 83//68 84//68 73//68
f 118//69 110//69 120//69
f 126//81 120//81 123//81
f 122//71 112//71 121//71
f 111//82 119//82 121//82
f 112//73 117//73 111//73
f 112//83 122//83 117//83
f 128//84 124//84 118//84
f 110//76 124//76 109//76
