# Blender v2.75 (sub 0) OBJ File: 'Level_Oberflaeche.blend'
# www.blender.org
mtllib Level_Oberflaeche.mtl
o Cube
v 203.000000 26.000000 1.000000
v 203.000000 26.000000 -1.000000
v 204.999985 26.000000 1.000000
v 204.999985 26.000000 -1.000000
v 64.000000 30.000000 1.000000
v 64.000000 30.000000 -1.000000
v 65.000000 30.000000 1.000000
v 65.000000 30.000000 -1.000000
v 57.000000 21.000000 1.000000
v 57.000000 21.000000 -1.000000
v 59.000004 21.000000 1.000000
v 59.000004 21.000000 -1.000000
v 56.000000 25.000000 1.000000
v 56.000000 25.000000 -1.000000
v 57.000000 25.000000 1.000000
v 57.000000 25.000000 -1.000000
v 61.000000 17.000000 1.000000
v 61.000000 17.000000 -1.000000
v 63.000000 17.000000 1.000000
v 63.000000 17.000000 -1.000000
v -60.000004 40.000000 1.000000
v -60.000004 40.000000 -1.000000
v -9.000000 40.000000 1.000000
v -9.000000 40.000000 -1.000000
v 110.000000 13.000000 1.000000
v 110.000000 13.000000 -1.000000
v 111.999992 13.000000 1.000000
v 111.999992 13.000000 -1.000000
v 116.000000 13.000000 1.000000
v 116.000000 13.000000 -1.000000
v 118.000000 13.000000 1.000000
v 118.000000 13.000000 -1.000000
v 203.000000 1.000000 1.000000
v 203.000000 1.000000 -1.000000
v 204.999985 1.000000 1.000000
v 204.999985 1.000000 -1.000000
v 188.000000 26.000000 1.000000
v 188.000000 26.000000 -1.000000
v 188.000000 21.000000 1.000000
v 188.000000 21.000000 -1.000000
v 200.000000 21.000000 1.000000
v 200.000000 21.000000 -1.000000
v 185.000000 16.000000 1.000000
v 185.000000 16.000000 -1.000000
v 187.999985 16.000000 1.000000
v 187.999985 16.000000 -1.000000
v 177.000015 16.000000 1.000000
v 177.000015 16.000000 -1.000000
v 179.000000 16.000000 1.000000
v 179.000000 16.000000 -1.000000
v 169.000000 16.000000 1.000000
v 169.000000 16.000000 -1.000000
v 171.000000 16.000000 1.000000
v 171.000000 16.000000 -1.000000
v 167.000000 11.000000 1.000000
v 167.000000 11.000000 -1.000000
v 168.999985 11.000000 1.000000
v 168.999985 11.000000 -1.000000
v 161.000000 9.000000 1.000000
v 161.000000 9.000000 -1.000000
v 163.000000 9.000000 1.000000
v 163.000000 9.000000 -1.000000
v 156.000000 5.000000 1.000000
v 156.000000 5.000000 -1.000000
v 158.000000 5.000000 1.000000
v 158.000000 5.000000 -1.000000
v 152.000000 3.000000 1.000000
v 152.000000 3.000000 -1.000000
v 154.000000 3.000000 1.000000
v 154.000000 3.000000 -1.000000
v 135.000015 1.000000 1.000000
v 135.000015 1.000000 -1.000000
v 137.026062 3.000000 -1.001925
v 137.026825 3.000000 0.998075
v 135.026062 3.000000 -1.001154
v 135.026825 3.000000 0.998845
v 135.026062 5.000000 -1.001155
v 135.026825 5.000000 0.998845
v 133.026062 5.000000 -1.000385
v 133.026825 5.000000 0.999615
v 133.026062 7.000000 -1.000385
v 133.026825 7.000000 0.999615
v 131.026062 7.000000 -0.999615
v 131.026825 7.000000 1.000385
v 131.026062 9.000000 -0.999615
v 131.026825 9.000000 1.000385
v 129.026062 9.000000 -0.998845
v 129.026825 9.000000 1.001155
v 129.026062 11.000000 -0.998846
v 129.026825 11.000000 1.001154
v 127.026062 11.000000 -0.998075
v 127.026825 11.000000 1.001925
v 122.000008 11.000000 1.000000
v 122.000008 11.000000 -1.000000
v 124.000000 11.000000 1.000000
v 124.000000 11.000000 -1.000000
v 120.000008 9.000000 1.000000
v 120.000008 9.000000 -1.000000
v 122.000000 9.000000 1.000000
v 122.000000 9.000000 -1.000000
v 118.000008 7.000000 1.000000
v 118.000008 7.000000 -1.000000
v 120.000000 7.000000 1.000000
v 120.000000 7.000000 -1.000000
v 116.000000 5.000000 1.000000
v 116.000000 5.000000 -1.000000
v 118.000000 5.000000 1.000000
v 118.000000 5.000000 -1.000000
v 114.000000 3.000000 1.000000
v 114.000000 3.000000 -1.000000
v 115.999992 3.000000 1.000000
v 115.999992 3.000000 -1.000000
v 104.000008 19.000000 1.000000
v 104.000008 19.000000 -1.000000
v 106.000000 19.000000 1.000000
v 106.000000 19.000000 -1.000000
v 97.000008 19.000000 1.000000
v 97.000008 19.000000 -1.000000
v 99.000000 19.000000 1.000000
v 99.000000 19.000000 -1.000000
v 90.000008 19.000000 1.000000
v 90.000008 19.000000 -1.000000
v 92.000000 19.000000 1.000000
v 92.000000 19.000000 -1.000000
v 95.000008 1.000000 1.000000
v 95.000008 1.000000 -1.000000
v 116.000000 1.000000 1.000000
v 116.000000 1.000000 -1.000000
v 87.000000 7.000000 1.000000
v 87.000000 7.000000 -1.000000
v 88.999992 7.000000 1.000000
v 88.999992 7.000000 -1.000000
v 85.000000 5.000000 1.000000
v 85.000000 5.000000 -1.000000
v 88.999992 5.000000 1.000000
v 88.999992 5.000000 -1.000000
v 82.000008 1.000000 1.000000
v 82.000008 1.000000 -1.000000
v 93.000008 1.000000 1.000000
v 93.000008 1.000000 -1.000000
v 83.000000 19.000000 1.000000
v 83.000000 19.000000 -1.000000
v 70.000000 9.000000 1.000000
v 70.000000 9.000000 -1.000000
v 82.000000 9.000000 -1.000000
v 82.000000 9.000000 1.000000
v 88.999992 13.000000 -1.000000
v 88.999992 13.000000 1.000000
v 81.000008 4.000000 1.000000
v 81.000008 4.000000 -1.000000
v 83.000000 4.000000 1.000000
v 83.000000 4.000000 -1.000000
v 75.000008 3.000000 1.000000
v 75.000008 3.000000 -1.000000
v 77.000000 3.000000 1.000000
v 77.000000 3.000000 -1.000000
v 72.000000 1.000000 1.000000
v 72.000000 1.000000 -1.000000
v 77.000000 1.000000 1.000000
v 77.000000 1.000000 -1.000000
v 67.000000 2.000000 1.000000
v 67.000000 2.000000 -1.000000
v 68.000000 2.000000 1.000000
v 68.000000 2.000000 -1.000000
v 99.000008 13.000000 1.000000
v 99.000008 13.000000 -1.000000
v 88.000008 13.000000 1.000000
v 88.000008 13.000000 -1.000000
v 97.000008 13.000000 1.000000
v 97.000008 13.000000 -1.000000
v 70.000000 21.000000 1.000000
v 70.000000 21.000000 -1.000000
v 81.000000 21.000000 1.000000
v 81.000000 21.000000 -1.000000
v 54.000000 54.000000 1.000000
v 54.000000 54.000000 -1.000000
v 110.000000 54.000000 1.000000
v 110.000000 54.000000 -1.000000
v 63.000000 25.000000 1.000000
v 63.000000 25.000000 -1.000000
v 65.000000 25.000000 1.000000
v 65.000000 25.000000 -1.000000
v 61.000000 13.000000 1.000000
v 61.000000 13.000000 -1.000000
v 63.000000 13.000000 1.000000
v 63.000000 13.000000 -1.000000
v 59.000000 13.000000 1.000000
v 59.000000 13.000000 -1.000000
v 55.000000 9.000000 1.000000
v 55.000000 9.000000 -1.000000
v 57.000000 9.000000 1.000000
v 57.000000 9.000000 -1.000000
v 53.000000 7.000000 1.000000
v 53.000000 7.000000 -1.000000
v 55.000000 7.000000 1.000000
v 55.000000 7.000000 -1.000000
v 48.000000 7.000000 1.000000
v 48.000000 7.000000 -1.000000
v 50.000004 7.000000 1.000000
v 50.000004 7.000000 -1.000000
v 42.000000 7.000000 1.000000
v 42.000000 7.000000 -1.000000
v 44.000000 7.000000 1.000000
v 44.000000 7.000000 -1.000000
v 31.000000 7.000000 1.000000
v 31.000000 7.000000 -1.000000
v 38.999996 7.000000 1.000000
v 38.999996 7.000000 -1.000000
v 63.049324 1.046135 -0.996849
v 63.048424 1.046135 1.003150
v 27.049322 1.046135 -1.001350
v 27.048424 1.046135 0.998650
v 29.049326 3.000000 -1.000449
v 29.048428 3.000000 0.999550
v 27.049328 3.000000 -1.001349
v 27.048428 3.000000 0.998650
v 27.042931 7.020800 -1.004573
v 27.048483 7.020800 0.995419
v 25.042938 7.020800 -0.999021
v 25.048491 7.020800 1.000971
v 21.003162 5.020799 1.000000
v 21.003162 5.020799 -1.000000
v 23.003162 5.020799 1.000000
v 23.003162 5.020799 -1.000000
v 19.000000 3.000000 1.000000
v 19.000000 3.000000 -1.000000
v 21.000002 3.000000 1.000000
v 21.000002 3.000000 -1.000000
v 11.000000 1.046135 1.000000
v 11.000000 1.046135 -1.000000
v 21.000002 1.046135 1.000000
v 21.000002 1.046135 -1.000000
v 9.000004 1.000000 -0.999999
v 8.999994 1.000000 1.000001
v -60.000004 1.000000 1.000000
v -60.000000 1.000000 -1.000000
vn 0.000000 1.000000 0.000000
vn 0.707100 0.707100 0.000000
usemtl Material
s off
f 2//1 1//1 3//1
f 6//1 5//1 7//1
f 10//1 9//1 11//1
f 14//1 13//1 15//1
f 18//1 17//1 19//1
f 22//1 21//1 23//1
f 26//1 25//1 27//1
f 30//1 29//1 31//1
f 34//1 33//1 35//1
f 40//1 39//1 41//1
f 44//1 43//1 45//1
f 48//1 47//1 49//1
f 52//1 51//1 53//1
f 56//1 55//1 57//1
f 60//1 59//1 61//1
f 64//1 63//1 65//1
f 68//1 67//1 69//1
f 74//1 73//1 75//1
f 78//1 77//1 79//1
f 82//1 81//1 83//1
f 86//1 85//1 87//1
f 90//1 89//1 91//1
f 94//1 93//1 95//1
f 98//1 97//1 99//1
f 102//1 101//1 103//1
f 106//1 105//1 107//1
f 110//1 109//1 111//1
f 114//1 113//1 115//1
f 118//1 117//1 119//1
f 122//1 121//1 123//1
f 126//1 125//1 127//1
f 130//1 129//1 131//1
f 134//1 133//1 135//1
f 138//1 137//1 139//1
f 142//2 141//2 148//2
f 145//1 144//1 143//1
f 150//1 149//1 151//1
f 154//1 153//1 155//1
f 158//1 157//1 159//1
f 162//1 161//1 163//1
f 168//1 167//1 169//1
f 172//1 171//1 173//1
f 176//1 175//1 177//1
f 180//1 179//1 181//1
f 184//1 183//1 185//1
f 190//1 189//1 191//1
f 194//1 193//1 195//1
f 198//1 197//1 199//1
f 202//1 201//1 203//1
f 206//1 205//1 207//1
f 212//1 210//1 209//1
f 216//1 214//1 213//1
f 218//1 217//1 219//1
f 222//1 221//1 223//1
f 226//1 225//1 227//1
f 230//1 229//1 231//1
f 236//1 235//1 234//1
f 4//1 2//1 3//1
f 8//1 6//1 7//1
f 12//1 10//1 11//1
f 16//1 14//1 15//1
f 20//1 18//1 19//1
f 24//1 22//1 23//1
f 28//1 26//1 27//1
f 32//1 30//1 31//1
f 36//1 34//1 35//1
f 42//1 40//1 41//1
f 46//1 44//1 45//1
f 50//1 48//1 49//1
f 54//1 52//1 53//1
f 58//1 56//1 57//1
f 62//1 60//1 61//1
f 66//1 64//1 65//1
f 70//1 68//1 69//1
f 76//1 74//1 75//1
f 80//1 78//1 79//1
f 84//1 82//1 83//1
f 88//1 86//1 87//1
f 92//1 90//1 91//1
f 96//1 94//1 95//1
f 100//1 98//1 99//1
f 104//1 102//1 103//1
f 108//1 106//1 107//1
f 112//1 110//1 111//1
f 116//1 114//1 115//1
f 120//1 118//1 119//1
f 124//1 122//1 123//1
f 128//1 126//1 127//1
f 132//1 130//1 131//1
f 136//1 134//1 135//1
f 140//1 138//1 139//1
f 147//2 142//2 148//2
f 146//1 145//1 143//1
f 152//1 150//1 151//1
f 156//1 154//1 155//1
f 160//1 158//1 159//1
f 164//1 162//1 163//1
f 170//1 168//1 169//1
f 174//1 172//1 173//1
f 178//1 176//1 177//1
f 182//1 180//1 181//1
f 186//1 184//1 185//1
f 192//1 190//1 191//1
f 196//1 194//1 195//1
f 200//1 198//1 199//1
f 204//1 202//1 203//1
f 208//1 206//1 207//1
f 211//1 212//1 209//1
f 215//1 216//1 213//1
f 220//1 218//1 219//1
f 224//1 222//1 223//1
f 228//1 226//1 227//1
f 232//1 230//1 231//1
f 233//1 236//1 234//1
f 38//1 37//1 1//1
f 72//1 71//1 33//1
f 166//1 165//1 25//1
f 174//2 173//2 141//2
f 188//1 187//1 183//1
f 2//1 38//1 1//1
f 34//1 72//1 33//1
f 26//1 166//1 25//1
f 142//2 174//2 141//2
f 184//1 188//1 183//1
