# Blender v2.76 (sub 0) OBJ File: 'Schnee.blend'
# www.blender.org
mtllib Schnee.mtl
o Cylinder
v -0.039321 0.213066 -0.000000
v 0.039321 0.213066 -0.000000
v 0.167392 0.141290 0.000000
v -0.165985 0.137771 -0.000000
v -0.078643 0.000000 0.000000
v -0.039321 0.068106 -0.000000
v 0.169503 -0.144105 0.000000
v -0.206010 -0.074591 -0.000000
v -0.369265 0.166774 -0.000000
v -0.039321 0.307360 -0.000000
v 0.286934 0.121738 0.000000
v 0.329240 0.241213 0.000000
v 0.289045 -0.124553 0.000000
v -0.039321 -0.310175 0.000000
v -0.039321 -0.409817 0.000000
v 0.039321 -0.409817 0.000000
v -0.372361 -0.170011 -0.000000
v -0.333040 -0.238117 -0.000000
v 0.127141 -0.273020 0.000000
v 0.168659 -0.250502 -0.000000
v 0.304667 0.027585 0.000000
v 0.384887 0.076139 0.000000
v 0.129675 0.264576 0.000000
v -0.123764 0.364781 -0.000000
v -0.294815 0.025755 -0.000000
v -0.381650 -0.071213 -0.000000
v -0.173444 -0.246561 -0.000000
v -0.166689 -0.142697 -0.000000
v -0.039321 -0.068106 0.000000
v 0.078643 -0.000000 -0.000000
v 0.039321 0.068106 -0.000000
v 0.039321 -0.068106 0.000000
v 0.206714 0.073183 0.000000
v -0.246205 0.185622 -0.000000
v -0.329944 0.234880 -0.000000
v -0.285527 0.117516 -0.000000
v -0.205306 0.069665 -0.000000
v 0.208825 -0.075998 0.000000
v -0.039321 -0.221510 0.000000
v 0.039321 -0.221510 0.000000
v 0.039321 0.307360 -0.000000
v 0.039321 0.404469 -0.000000
v -0.039321 0.404469 -0.000000
v 0.247613 0.189844 0.000000
v 0.368562 0.173107 0.000000
v 0.249724 -0.192659 0.000000
v 0.332759 -0.241917 0.000000
v 0.372080 -0.173811 0.000000
v 0.039321 -0.310175 0.000000
v -0.287919 -0.121034 -0.000000
v -0.248598 -0.189141 -0.000000
v -0.130519 -0.273020 -0.000000
v -0.130519 -0.361685 -0.000000
v 0.127141 -0.361685 0.000000
v 0.248879 -0.299057 -0.000000
v 0.392065 -0.069665 0.000000
v 0.311844 -0.021111 0.000000
v 0.250990 0.286109 0.000000
v 0.170770 0.237554 0.000000
v 0.129675 0.358870 0.000000
v -0.123764 0.270487 -0.000000
v -0.170207 0.235725 0.000000
v -0.250427 0.283575 0.000000
v -0.375036 0.073606 -0.000000
v -0.299741 -0.024770 -0.000000
v -0.255353 -0.293005 -0.000000
v -0.039321 0.213066 0.019661
v 0.039321 0.068106 0.019661
v 0.039321 0.213066 0.019661
v 0.078643 -0.000000 0.019661
v 0.206714 0.073183 0.019661
v 0.039321 -0.068106 0.019661
v 0.167392 0.141290 0.019661
v -0.039321 -0.068106 0.019661
v -0.165985 0.137771 0.019661
v -0.078643 0.000000 0.019661
v -0.205306 0.069665 0.019661
v -0.039321 0.068106 0.019661
v 0.169503 -0.144105 0.019661
v 0.208825 -0.075998 0.019661
v -0.039321 -0.221510 0.019661
v 0.039321 -0.221510 0.019661
v -0.206010 -0.074591 0.019661
v -0.166689 -0.142697 0.019661
v -0.246205 0.185622 0.019661
v -0.285527 0.117516 0.019661
v -0.329944 0.234880 0.019661
v -0.369265 0.166774 0.019661
v -0.039321 0.307360 0.019661
v 0.039321 0.307360 0.019661
v -0.039321 0.404469 0.019661
v 0.039321 0.404469 0.019660
v 0.286934 0.121738 0.019661
v 0.247613 0.189844 0.019661
v 0.368562 0.173107 0.019661
v 0.329240 0.241213 0.019661
v 0.249724 -0.192659 0.019661
v 0.289045 -0.124553 0.019661
v 0.332759 -0.241917 0.019661
v 0.372080 -0.173811 0.019661
v -0.039321 -0.310175 0.019661
v 0.039321 -0.310175 0.019661
v -0.039321 -0.409817 0.019660
v 0.039321 -0.409817 0.019661
v -0.287919 -0.121034 0.019661
v -0.248598 -0.189141 0.019661
v -0.372361 -0.170011 0.019661
v -0.333040 -0.238117 0.019661
v -0.130519 -0.273020 0.019661
v -0.130519 -0.361685 0.019661
v 0.127141 -0.273020 0.019661
v 0.127141 -0.361685 0.019661
v 0.168659 -0.250502 0.019661
v 0.248879 -0.299057 0.019661
v 0.311844 -0.021111 0.019661
v 0.392065 -0.069665 0.019661
v 0.304667 0.027585 0.019661
v 0.384887 0.076139 0.019661
v 0.170770 0.237554 0.019661
v 0.250990 0.286109 0.019661
v 0.129675 0.264576 0.019661
v 0.129675 0.358870 0.019661
v -0.123764 0.270487 0.019661
v -0.123764 0.364781 0.019661
v -0.170207 0.235725 0.019661
v -0.250427 0.283575 0.019661
v -0.294815 0.025755 0.019661
v -0.375036 0.073606 0.019660
v -0.299741 -0.024770 0.019661
v -0.381650 -0.071213 0.019661
v -0.173444 -0.246561 0.019661
v -0.255353 -0.293005 0.019660
v -0.162133 -0.230481 -0.000000
v -0.242436 -0.278183 -0.000000
v -0.166689 -0.142697 -0.019661
v -0.039321 -0.068106 -0.019661
v 0.078643 -0.000000 -0.019661
v 0.039321 0.068106 -0.019661
v -0.206010 -0.074591 -0.019661
v 0.039321 0.213066 -0.019661
v -0.039321 0.213066 -0.019661
v -0.039321 0.068106 -0.019661
v 0.039321 -0.068106 -0.019661
v 0.206714 0.073183 -0.019661
v 0.167392 0.141290 -0.019661
v -0.246205 0.185622 -0.019661
v -0.329944 0.234880 -0.019661
v -0.078643 0.000000 -0.019661
v -0.369265 0.166774 -0.019661
v -0.285527 0.117516 -0.019661
v -0.165985 0.137771 -0.019661
v -0.205306 0.069665 -0.019661
v 0.169503 -0.144105 -0.019661
v 0.208825 -0.075998 -0.019661
v -0.039321 -0.221510 -0.019661
v 0.039321 -0.221510 -0.019661
v 0.039321 0.307360 -0.019661
v -0.039321 0.307360 -0.019661
v 0.039321 0.404469 -0.019660
v -0.039321 0.404469 -0.019661
v 0.286934 0.121738 -0.019661
v 0.247613 0.189844 -0.019661
v 0.368562 0.173107 -0.019661
v 0.329240 0.241213 -0.019661
v 0.249724 -0.192659 -0.019661
v 0.289045 -0.124553 -0.019661
v 0.332759 -0.241917 -0.019661
v 0.372080 -0.173811 -0.019661
v -0.039321 -0.310175 -0.019661
v 0.039321 -0.310175 -0.019661
v -0.039321 -0.409817 -0.019660
v 0.039321 -0.409817 -0.019661
v -0.287919 -0.121034 -0.019661
v -0.248598 -0.189141 -0.019661
v -0.372361 -0.170011 -0.019661
v -0.333040 -0.238117 -0.019661
v -0.130519 -0.273020 -0.019661
v -0.130519 -0.361685 -0.019661
v 0.127141 -0.361685 -0.019661
v 0.127141 -0.273020 -0.019661
v 0.168659 -0.250502 -0.019661
v 0.248879 -0.299057 -0.019661
v 0.392065 -0.069665 -0.019661
v 0.311844 -0.021111 -0.019661
v 0.304667 0.027585 -0.019661
v 0.384887 0.076139 -0.019661
v 0.250990 0.286109 -0.019661
v 0.170770 0.237554 -0.019661
v 0.129675 0.264576 -0.019661
v 0.129675 0.358870 -0.019661
v -0.123764 0.364781 -0.019661
v -0.123764 0.270487 -0.019661
v -0.170207 0.235725 -0.019661
v -0.250427 0.283575 -0.019661
v -0.375036 0.073606 -0.019660
v -0.294815 0.025755 -0.019661
v -0.299741 -0.024770 -0.019661
v -0.381650 -0.071213 -0.019661
v -0.255353 -0.293005 -0.019660
v -0.173444 -0.246561 -0.019661
vn -0.000000 -0.000000 -1.000000
vn 0.000000 0.000000 1.000000
vn 0.472600 -0.795700 -0.378900
vn 0.999400 -0.035100 0.000000
vn 0.000000 -1.000000 0.000000
vn 1.000000 -0.000000 0.000000
vn -0.505400 0.862900 0.000000
vn 0.505400 -0.862900 0.000000
vn -0.495300 0.868700 0.000000
vn -1.000000 -0.000000 0.000000
vn 0.495300 -0.868700 0.000000
vn -0.562300 -0.826900 0.000000
vn 0.562300 0.826900 0.000000
vn -0.866000 -0.500000 0.000000
vn 0.512300 0.858800 0.000000
vn 0.501700 -0.865000 0.000000
vn -0.999100 -0.043100 0.000000
vn -0.501700 0.865000 0.000000
vn 0.000000 1.000000 0.000000
vn 0.496100 -0.868200 0.000000
vn 0.999100 0.043100 0.000000
vn -0.512300 -0.858800 0.000000
vn 0.491800 -0.870700 0.000000
vn -0.496100 0.868200 0.000000
vn 0.440400 -0.897800 0.000000
vn -0.491800 0.870700 0.000000
vn 0.507000 0.861900 0.000000
vn -0.440400 0.897800 0.000000
vn -0.493200 0.869900 0.000000
vn 0.505900 0.862600 0.000000
vn -0.507000 -0.861900 0.000000
vn -0.469300 -0.883000 0.000000
vn -0.505900 -0.862600 0.000000
vn 0.866000 0.500000 0.000000
vn -0.866000 0.500000 0.000000
vn 0.469300 0.883000 0.000000
vn -0.517800 -0.855500 0.000000
vn -0.532600 0.846400 0.000000
vn 1.000000 -0.007900 0.000000
vn 0.532600 -0.846400 0.000000
vn 0.997900 -0.064900 0.000000
vn -1.000000 0.007900 0.000000
vn -0.997900 0.064900 0.000000
vn 0.517800 0.855500 0.000000
vn -0.470200 0.882600 0.000000
vn -0.817900 0.575300 0.000000
vn 0.470200 -0.882600 0.000000
vn 0.866000 -0.500000 0.000000
vn -0.504200 -0.863600 0.000000
vn 0.517800 -0.855500 0.000000
vn 0.510200 0.860100 0.000000
vn 0.504200 0.863600 -0.000000
vn 0.422000 0.906600 0.000000
vn -0.510200 -0.860100 0.000000
vn -0.422000 -0.906600 0.000000
vn -0.517800 0.855500 0.000000
vn 0.481900 0.876200 0.000000
vn -0.999400 0.035100 0.000000
vn -0.481900 -0.876200 0.000000
vn 0.468100 -0.825600 -0.314900
vn 0.468100 -0.825600 0.314900
vn 0.472600 -0.795700 0.378900
vn 0.753900 -0.657000 0.000000
usemtl None
s off
f 6//1 1//1 2//1
f 11//1 22//1 21//1
f 32//2 29//2 39//2
f 46//2 47//2 48//2
f 44//2 58//2 59//2
f 75//2 77//2 76//2
f 83//2 84//2 74//2
f 69//2 67//2 78//2
f 79//2 97//2 98//2
f 78//2 74//2 70//2
f 95//2 96//2 94//2
f 93//2 94//2 73//2
f 92//2 91//2 89//2
f 90//2 89//2 67//2
f 85//2 87//2 88//2
f 75//2 85//2 86//2
f 70//2 71//2 73//2
f 72//2 79//2 80//2
f 81//2 82//2 72//2
f 97//2 99//2 100//2
f 101//2 102//2 82//2
f 103//2 104//2 102//2
f 83//2 105//2 106//2
f 107//2 108//2 106//2
f 109//2 110//2 101//2
f 102//2 112//2 111//2
f 113//2 114//2 97//2
f 98//2 116//2 115//2
f 117//2 118//2 93//2
f 94//2 120//2 119//2
f 121//2 122//2 90//2
f 89//2 124//2 123//2
f 125//2 126//2 85//2
f 86//2 128//2 127//2
f 129//2 130//2 105//2
f 106//2 132//2 131//2
f 134//3 133//3 131//3
f 151//1 142//1 148//1
f 139//1 148//1 136//1
f 140//1 138//1 142//1
f 166//1 165//1 153//1
f 148//1 142//1 137//1
f 163//1 161//1 162//1
f 161//1 144//1 145//1
f 159//1 157//1 158//1
f 157//1 140//1 141//1
f 149//1 147//1 146//1
f 150//1 146//1 151//1
f 145//1 144//1 137//1
f 154//1 153//1 143//1
f 155//1 136//1 143//1
f 168//1 167//1 165//1
f 169//1 155//1 156//1
f 171//1 169//1 170//1
f 174//1 173//1 139//1
f 175//1 173//1 174//1
f 177//1 155//1 169//1
f 180//1 179//1 170//1
f 181//1 153//1 165//1
f 184//1 183//1 166//1
f 185//1 144//1 161//1
f 188//1 187//1 162//1
f 189//1 140//1 157//1
f 192//1 191//1 158//1
f 193//1 151//1 146//1
f 196//1 195//1 150//1
f 197//1 139//1 173//1
f 200//1 199//1 174//1
f 187//4 120//4 94//4
f 172//5 104//5 103//5
f 190//6 122//6 121//6
f 170//6 102//6 104//6
f 148//7 139//7 83//7
f 136//8 74//8 84//8
f 190//9 157//9 90//9
f 169//10 171//10 103//10
f 136//10 155//10 81//10
f 189//11 121//11 69//11
f 143//6 72//6 82//6
f 191//10 192//10 123//10
f 140//6 69//6 68//6
f 141//12 67//12 123//12
f 142//10 78//10 67//10
f 191//13 124//13 89//13
f 176//14 108//14 107//14
f 194//15 126//15 125//15
f 174//16 106//16 108//16
f 194//17 146//17 85//17
f 173//18 175//18 107//18
f 160//19 91//19 92//19
f 144//20 71//20 70//20
f 193//21 125//21 75//21
f 177//10 178//10 110//10
f 160//10 158//10 89//10
f 196//22 127//22 128//22
f 169//23 101//23 110//23
f 159//6 92//6 90//6
f 145//24 138//24 68//24
f 152//25 77//25 127//25
f 155//26 177//26 109//26
f 147//27 87//27 85//27
f 150//28 195//28 128//28
f 180//6 111//6 112//6
f 197//29 198//29 130//29
f 156//30 82//30 111//30
f 150//31 86//31 88//31
f 173//32 105//32 130//32
f 179//33 112//33 102//33
f 164//34 96//34 95//34
f 149//35 88//35 87//35
f 197//36 129//36 83//36
f 182//37 114//37 113//37
f 164//38 162//38 94//38
f 165//39 97//39 114//39
f 163//40 95//40 93//40
f 135//41 84//41 131//41
f 153//42 181//42 113//42
f 174//43 199//43 132//43
f 184//44 115//44 116//44
f 184//45 154//45 80//45
f 200//46 131//46 133//46
f 183//47 116//47 98//47
f 168//48 100//48 99//48
f 153//49 79//49 72//49
f 186//50 118//50 117//50
f 168//51 166//51 98//51
f 137//52 70//52 80//52
f 161//53 93//53 118//53
f 167//54 99//54 97//54
f 185//55 117//55 71//55
f 187//56 188//56 119//56
f 151//57 75//57 78//57
f 188//58 145//58 73//58
f 148//59 76//59 77//59
f 6//1 5//1 4//1
f 32//2 30//2 31//2
f 30//2 32//2 38//2
f 40//2 32//2 39//2
f 63//2 34//2 62//2
f 78//2 75//2 76//2
f 76//2 83//2 74//2
f 68//2 69//2 78//2
f 80//2 79//2 98//2
f 70//2 68//2 78//2
f 78//2 76//2 74//2
f 74//2 72//2 70//2
f 93//2 95//2 94//2
f 71//2 93//2 73//2
f 90//2 92//2 89//2
f 69//2 90//2 67//2
f 86//2 85//2 88//2
f 77//2 75//2 86//2
f 68//2 70//2 73//2
f 70//2 72//2 80//2
f 74//2 81//2 72//2
f 98//2 97//2 100//2
f 81//2 101//2 82//2
f 101//2 103//2 102//2
f 84//2 83//2 106//2
f 105//2 107//2 106//2
f 81//2 109//2 101//2
f 82//2 102//2 111//2
f 79//2 113//2 97//2
f 80//2 98//2 115//2
f 71//2 117//2 93//2
f 73//2 94//2 119//2
f 69//2 121//2 90//2
f 67//2 89//2 123//2
f 75//2 125//2 85//2
f 77//2 86//2 127//2
f 83//2 129//2 105//2
f 84//2 106//2 131//2
f 132//60 134//60 131//60
f 152//1 151//1 148//1
f 135//1 139//1 136//1
f 141//1 140//1 142//1
f 154//1 166//1 153//1
f 137//1 143//1 136//1
f 136//1 148//1 137//1
f 142//1 138//1 137//1
f 164//1 163//1 162//1
f 162//1 161//1 145//1
f 160//1 159//1 158//1
f 158//1 157//1 141//1
f 150//1 149//1 146//1
f 152//1 150//1 151//1
f 138//1 145//1 137//1
f 137//1 154//1 143//1
f 156//1 155//1 143//1
f 166//1 168//1 165//1
f 170//1 169//1 156//1
f 172//1 171//1 170//1
f 135//1 174//1 139//1
f 176//1 175//1 174//1
f 178//1 177//1 169//1
f 156//1 180//1 170//1
f 182//1 181//1 165//1
f 154//1 184//1 166//1
f 186//1 185//1 161//1
f 145//1 188//1 162//1
f 190//1 189//1 157//1
f 141//1 192//1 158//1
f 194//1 193//1 146//1
f 152//1 196//1 150//1
f 198//1 197//1 173//1
f 135//1 200//1 174//1
f 162//4 187//4 94//4
f 171//5 172//5 103//5
f 189//6 190//6 121//6
f 172//6 170//6 104//6
f 76//7 148//7 83//7
f 135//8 136//8 84//8
f 122//9 190//9 90//9
f 101//10 169//10 103//10
f 74//10 136//10 81//10
f 140//11 189//11 69//11
f 156//6 143//6 82//6
f 124//10 191//10 123//10
f 138//6 140//6 68//6
f 192//12 141//12 123//12
f 141//10 142//10 67//10
f 158//13 191//13 89//13
f 175//14 176//14 107//14
f 193//15 194//15 125//15
f 176//16 174//16 108//16
f 126//17 194//17 85//17
f 105//18 173//18 107//18
f 159//19 160//19 92//19
f 137//20 144//20 70//20
f 151//21 193//21 75//21
f 109//10 177//10 110//10
f 91//10 160//10 89//10
f 195//22 196//22 128//22
f 178//23 169//23 110//23
f 157//6 159//6 90//6
f 73//24 145//24 68//24
f 196//25 152//25 127//25
f 81//26 155//26 109//26
f 146//27 147//27 85//27
f 86//28 150//28 128//28
f 179//6 180//6 112//6
f 129//29 197//29 130//29
f 180//30 156//30 111//30
f 149//31 150//31 88//31
f 198//32 173//32 130//32
f 170//33 179//33 102//33
f 163//34 164//34 95//34
f 147//35 149//35 87//35
f 139//36 197//36 83//36
f 181//37 182//37 113//37
f 96//38 164//38 94//38
f 182//39 165//39 114//39
f 161//40 163//40 93//40
f 200//41 135//41 131//41
f 79//42 153//42 113//42
f 106//43 174//43 132//43
f 183//44 184//44 116//44
f 115//45 184//45 80//45
f 166//47 183//47 98//47
f 167//48 168//48 99//48
f 143//49 153//49 72//49
f 185//50 186//50 117//50
f 100//51 168//51 98//51
f 154//52 137//52 80//52
f 186//53 161//53 118//53
f 165//54 167//54 97//54
f 144//55 185//55 71//55
f 120//56 187//56 119//56
f 142//57 151//57 78//57
f 119//58 188//58 73//58
f 152//59 148//59 77//59
f 5//1 37//1 4//1
f 29//1 28//1 8//1
f 13//1 46//1 7//1
f 32//1 6//1 31//1
f 44//1 12//1 45//1
f 3//1 44//1 11//1
f 10//1 43//1 42//1
f 1//1 10//1 41//1
f 9//1 35//1 34//1
f 36//1 34//1 4//1
f 3//1 33//1 30//1
f 38//1 7//1 32//1
f 40//1 49//1 14//1
f 49//1 16//1 15//1
f 51//1 50//1 8//1
f 51//1 18//1 17//1
f 14//1 53//1 52//1
f 19//1 54//1 49//1
f 46//1 55//1 20//1
f 57//1 56//1 13//1
f 41//1 60//1 23//1
f 61//1 24//1 10//1
f 25//1 64//1 36//1
f 50//1 26//1 65//1
f 27//1 66//1 51//1
f 29//2 5//2 8//2
f 6//2 31//2 2//2
f 31//2 5//2 32//2
f 44//2 11//2 45//2
f 3//2 33//2 11//2
f 10//2 41//2 42//2
f 1//2 2//2 41//2
f 40//2 39//2 14//2
f 49//2 14//2 15//2
f 51//2 50//2 17//2
f 14//2 39//2 52//2
f 46//2 7//2 20//2
f 11//2 33//2 21//2
f 41//2 2//2 23//2
f 34//2 4//2 62//2
f 50//2 8//2 65//2
f 134//61 199//61 200//61
f 38//1 13//1 7//1
f 32//1 29//1 5//1
f 5//1 6//1 32//1
f 36//1 9//1 34//1
f 37//1 36//1 4//1
f 31//1 3//1 30//1
f 13//1 48//1 46//1
f 28//1 51//1 8//1
f 40//1 19//1 49//1
f 38//1 57//1 13//1
f 3//1 59//1 44//1
f 1//1 61//1 10//1
f 37//1 25//1 36//1
f 28//1 27//1 51//1
f 31//2 6//2 5//2
f 133//62 134//62 200//62
f 199//63 134//63 132//63
