# Blender v2.76 (sub 0) OBJ File: ''
# www.blender.org
mtllib 0.mtl
o Text_Mesh
v 0.697923 0.506365 -0.000000
v 0.695238 0.582099 -0.000000
v 0.687336 0.653141 -0.000000
v 0.674442 0.719130 -0.000000
v 0.656784 0.779705 -0.000000
v 0.634589 0.834505 -0.000000
v 0.608084 0.883169 -0.000000
v 0.577495 0.925337 -0.000000
v 0.543049 0.960648 -0.000000
v 0.504973 0.988740 -0.000000
v 0.463494 1.009252 -0.000000
v 0.418840 1.021824 -0.000000
v 0.371236 1.026095 -0.000000
v 0.323631 1.021824 -0.000000
v 0.278977 1.009252 -0.000000
v 0.237498 0.988740 -0.000000
v 0.199422 0.960648 -0.000000
v 0.164976 0.925337 -0.000000
v 0.134387 0.883170 -0.000000
v 0.107882 0.834505 -0.000000
v 0.085687 0.779705 -0.000000
v 0.068029 0.719130 -0.000000
v 0.055135 0.653141 -0.000000
v 0.047233 0.582099 -0.000000
v 0.044548 0.506365 -0.000000
v 0.047233 0.430632 -0.000000
v 0.055135 0.359590 -0.000000
v 0.068029 0.293601 -0.000000
v 0.085687 0.233026 -0.000000
v 0.107882 0.178226 -0.000000
v 0.134387 0.129561 -0.000000
v 0.164976 0.087393 -0.000000
v 0.199422 0.052083 -0.000000
v 0.237498 0.023991 -0.000000
v 0.278977 0.003479 -0.000000
v 0.323631 -0.009093 0.000000
v 0.371236 -0.013364 0.000000
v 0.418840 -0.009094 0.000000
v 0.463494 0.003479 -0.000000
v 0.504973 0.023991 -0.000000
v 0.543049 0.052083 -0.000000
v 0.577495 0.087393 -0.000000
v 0.608084 0.129561 -0.000000
v 0.634589 0.178226 -0.000000
v 0.656784 0.233026 -0.000000
v 0.674442 0.293601 -0.000000
v 0.687336 0.359590 -0.000000
v 0.695238 0.430632 -0.000000
v 0.552399 0.506365 -0.000000
v 0.550989 0.448946 -0.000000
v 0.546816 0.395600 -0.000000
v 0.539962 0.346502 -0.000000
v 0.530509 0.301828 -0.000000
v 0.518540 0.261754 -0.000000
v 0.504138 0.226454 -0.000000
v 0.487384 0.196104 -0.000000
v 0.468362 0.170878 -0.000000
v 0.447153 0.150954 -0.000000
v 0.423841 0.136505 -0.000000
v 0.398508 0.127707 -0.000000
v 0.371236 0.124735 -0.000000
v 0.343963 0.127707 -0.000000
v 0.318630 0.136505 -0.000000
v 0.295318 0.150954 -0.000000
v 0.274109 0.170878 -0.000000
v 0.255087 0.196103 -0.000000
v 0.238333 0.226454 -0.000000
v 0.223931 0.261754 -0.000000
v 0.211962 0.301828 -0.000000
v 0.202509 0.346502 -0.000000
v 0.195655 0.395600 -0.000000
v 0.191482 0.448946 -0.000000
v 0.190073 0.506365 -0.000000
v 0.191482 0.563785 -0.000000
v 0.195655 0.617131 -0.000000
v 0.202509 0.666229 -0.000000
v 0.211962 0.710902 -0.000000
v 0.223931 0.750977 -0.000000
v 0.238333 0.786277 -0.000000
v 0.255087 0.816627 -0.000000
v 0.274109 0.841852 -0.000000
v 0.295318 0.861777 -0.000000
v 0.318630 0.876226 -0.000000
v 0.343964 0.885024 -0.000000
v 0.371236 0.887995 -0.000000
v 0.398508 0.885024 -0.000000
v 0.423841 0.876226 -0.000000
v 0.447153 0.861777 -0.000000
v 0.468362 0.841852 -0.000000
v 0.487384 0.816627 -0.000000
v 0.504138 0.786277 -0.000000
v 0.518541 0.750977 -0.000000
v 0.530509 0.710902 -0.000000
v 0.539962 0.666229 -0.000000
v 0.546816 0.617131 -0.000000
v 0.550989 0.563785 -0.000000
v 0.697923 0.506365 -0.037124
v 0.695238 0.582099 -0.037124
v 0.687336 0.653141 -0.037124
v 0.674442 0.719130 -0.037124
v 0.656784 0.779705 -0.037124
v 0.634589 0.834505 -0.037122
v 0.608084 0.883169 -0.037124
v 0.577495 0.925337 -0.037124
v 0.543049 0.960648 -0.037124
v 0.504973 0.988740 -0.037124
v 0.463494 1.009252 -0.037124
v 0.418840 1.021824 -0.037123
v 0.371236 1.026095 -0.037124
v 0.323631 1.021824 -0.037124
v 0.278977 1.009252 -0.037124
v 0.237498 0.988740 -0.037124
v 0.199422 0.960648 -0.037124
v 0.164976 0.925337 -0.037124
v 0.134387 0.883170 -0.037122
v 0.107882 0.834505 -0.037122
v 0.085687 0.779705 -0.037124
v 0.068029 0.719130 -0.037124
v 0.055135 0.653141 -0.037124
v 0.047233 0.582099 -0.037124
v 0.044548 0.506365 -0.037124
v 0.047233 0.430632 -0.037124
v 0.055135 0.359590 -0.037122
v 0.068029 0.293601 -0.037124
v 0.085687 0.233026 -0.037124
v 0.107882 0.178226 -0.037124
v 0.134387 0.129561 -0.037124
v 0.164976 0.087393 -0.037124
v 0.199422 0.052083 -0.037124
v 0.237498 0.023991 -0.037122
v 0.278977 0.003479 -0.037124
v 0.323631 -0.009094 -0.037124
v 0.371236 -0.013364 -0.037122
v 0.418840 -0.009094 -0.037124
v 0.463494 0.003479 -0.037124
v 0.504973 0.023991 -0.037124
v 0.543049 0.052083 -0.037122
v 0.577495 0.087393 -0.037124
v 0.608084 0.129561 -0.037124
v 0.634589 0.178226 -0.037124
v 0.656784 0.233026 -0.037124
v 0.674442 0.293601 -0.037124
v 0.687336 0.359590 -0.037124
v 0.695238 0.430632 -0.037124
v 0.552399 0.506365 -0.037122
v 0.550989 0.448946 -0.037124
v 0.546816 0.395600 -0.037124
v 0.539962 0.346502 -0.037122
v 0.530509 0.301828 -0.037124
v 0.518540 0.261754 -0.037124
v 0.504138 0.226454 -0.037124
v 0.487384 0.196104 -0.037124
v 0.468362 0.170878 -0.037124
v 0.447153 0.150954 -0.037122
v 0.423841 0.136505 -0.037124
v 0.398508 0.127707 -0.037124
v 0.371236 0.124735 -0.037124
v 0.343963 0.127707 -0.037124
v 0.318630 0.136505 -0.037124
v 0.295318 0.150954 -0.037124
v 0.274109 0.170878 -0.037124
v 0.255087 0.196103 -0.037124
v 0.238333 0.226454 -0.037124
v 0.223931 0.261754 -0.037124
v 0.211962 0.301828 -0.037124
v 0.202509 0.346502 -0.037124
v 0.195655 0.395600 -0.037124
v 0.191482 0.448946 -0.037124
v 0.190073 0.506365 -0.037122
v 0.191482 0.563785 -0.037122
v 0.195655 0.617131 -0.037124
v 0.202509 0.666229 -0.037124
v 0.211962 0.710902 -0.037124
v 0.223931 0.750977 -0.037122
v 0.238333 0.786277 -0.037124
v 0.255087 0.816627 -0.037122
v 0.274109 0.841852 -0.037124
v 0.295318 0.861777 -0.037122
v 0.318630 0.876226 -0.037122
v 0.343964 0.885024 -0.037124
v 0.371236 0.887995 -0.037122
v 0.398508 0.885024 -0.037124
v 0.423841 0.876226 -0.037124
v 0.447153 0.861777 -0.037124
v 0.468362 0.841852 -0.037124
v 0.487384 0.816627 -0.037124
v 0.504138 0.786277 -0.037124
v 0.518541 0.750977 -0.037124
v 0.530509 0.710902 -0.037124
v 0.539962 0.666229 -0.037124
v 0.546816 0.617131 -0.037124
v 0.550989 0.563785 -0.037124
vn 0.000000 0.000000 1.000000
vn 0.000000 -0.000100 -1.000000
vn 0.000000 0.000100 -1.000000
vn 0.000000 -0.000000 -1.000000
vn -0.000000 0.000500 -1.000000
vn 0.000000 0.000400 -1.000000
vn 0.000000 -0.000300 -1.000000
vn -0.993900 -0.110600 0.000000
vn -0.089400 0.996000 0.000000
vn 0.526800 0.850000 0.000000
vn 0.925900 0.377800 0.000000
vn -0.978300 0.207000 0.000000
vn -0.443300 0.896400 0.000000
vn 0.089400 -0.996000 0.000000
vn -0.878200 -0.478300 0.000000
vn -0.997000 0.078000 0.000000
vn -0.960000 0.279900 0.000000
vn 0.443300 -0.896400 0.000000
vn -0.925900 -0.377800 0.000000
vn 0.925900 -0.377800 0.000000
vn 0.926900 -0.375400 0.000000
vn -0.993900 0.110600 0.000000
vn 0.684700 -0.728800 0.000000
vn 0.999700 0.024500 0.000000
vn 0.926900 0.375400 0.000000
vn 0.809500 -0.587200 0.000000
vn -0.271000 -0.962600 0.000000
vn -0.715800 -0.698300 0.000000
vn -0.108300 0.994100 0.000000
vn 0.997000 -0.078000 0.000000
vn 0.809500 0.587200 0.000000
vn 0.798400 0.602100 0.000000
vn -0.878200 0.478300 0.000000
vn -0.328100 -0.944700 0.000000
vn -0.526800 0.850000 0.000000
vn 0.978300 -0.207000 0.000000
vn 0.981400 -0.191800 0.000000
vn 0.089400 0.996000 0.000000
vn 0.990400 0.138300 0.000000
vn 0.981400 0.191800 0.000000
vn -0.593700 -0.804700 0.000000
vn -0.798400 -0.602100 0.000000
vn 0.443300 0.896400 0.000000
vn 0.328100 0.944700 0.000000
vn -0.999700 -0.024500 0.000000
vn 0.108300 -0.994100 0.000000
vn -0.715800 0.698300 0.000000
vn -0.997000 -0.078000 0.000000
vn -0.981400 -0.191800 0.000000
vn -0.958200 0.286200 0.000000
vn -0.978300 -0.207000 0.000000
vn -0.271000 0.962600 0.000000
vn 0.958200 0.286200 0.000000
vn 0.999400 0.035400 0.000000
vn 0.271000 -0.962600 0.000000
vn -0.875500 0.483300 0.000000
vn 0.990400 -0.138300 0.000000
vn 0.684700 0.728800 0.000000
vn -0.981400 0.191800 0.000000
vn -0.999400 -0.035400 0.000000
vn -0.990400 0.138300 0.000000
vn -0.593700 0.804700 0.000000
vn 0.593700 -0.804700 0.000000
vn 0.878200 0.478300 0.000000
vn -0.926900 -0.375400 0.000000
vn 0.798400 -0.602100 0.000000
vn 0.878200 -0.478300 0.000000
vn -0.999400 0.035400 0.000000
vn -0.089400 -0.996000 0.000000
vn -0.809500 -0.587200 0.000000
vn 0.526800 -0.850000 0.000000
vn -0.999700 0.024500 0.000000
vn 0.999700 -0.024500 0.000000
vn -0.443300 -0.896400 0.000000
vn 0.999400 -0.035400 0.000000
vn -0.328100 0.944700 0.000000
vn 0.875500 -0.483300 0.000000
vn 0.715800 0.698300 0.000000
vn 0.875500 0.483300 0.000000
vn -0.926900 0.375400 0.000000
vn -0.990400 -0.138300 0.000000
vn 0.271000 0.962600 0.000000
vn 0.958200 -0.286200 0.000000
vn 0.715800 -0.698300 0.000000
vn -0.809500 0.587200 0.000000
vn -0.925900 0.377800 0.000000
vn -0.684700 -0.728800 0.000000
vn 0.960000 0.279900 0.000000
vn -0.526800 -0.850000 0.000000
vn -0.875500 -0.483300 0.000000
vn -0.684700 0.728800 0.000000
vn 0.993900 0.110600 0.000000
vn 0.960000 -0.279900 0.000000
vn -0.108300 -0.994100 0.000000
vn -0.958200 -0.286200 0.000000
vn 0.593700 0.804700 0.000000
vn 0.997000 0.078000 0.000000
vn -0.960000 -0.279900 0.000000
vn 0.993900 -0.110600 0.000000
vn 0.328100 -0.944700 0.000000
vn -0.798400 0.602100 0.000000
vn 0.108300 0.994100 0.000000
vn 0.978300 0.207000 0.000000
usemtl None
s off
f 14//1 12//1 13//1
f 14//1 11//1 12//1
f 15//1 11//1 14//1
f 15//1 10//1 11//1
f 16//1 10//1 15//1
f 16//1 9//1 10//1
f 17//1 9//1 16//1
f 18//1 9//1 17//1
f 18//1 8//1 9//1
f 19//1 8//1 18//1
f 19//1 85//1 8//1
f 85//1 7//1 8//1
f 19//1 84//1 85//1
f 86//1 7//1 85//1
f 19//1 83//1 84//1
f 87//1 7//1 86//1
f 20//1 83//1 19//1
f 87//1 6//1 7//1
f 20//1 82//1 83//1
f 88//1 6//1 87//1
f 20//1 81//1 82//1
f 89//1 6//1 88//1
f 20//1 80//1 81//1
f 90//1 6//1 89//1
f 21//1 80//1 20//1
f 90//1 5//1 6//1
f 21//1 79//1 80//1
f 91//1 5//1 90//1
f 21//1 78//1 79//1
f 92//1 5//1 91//1
f 22//1 78//1 21//1
f 92//1 4//1 5//1
f 22//1 77//1 78//1
f 93//1 4//1 92//1
f 23//1 77//1 22//1
f 93//1 3//1 4//1
f 23//1 76//1 77//1
f 94//1 3//1 93//1
f 23//1 75//1 76//1
f 95//1 3//1 94//1
f 24//1 75//1 23//1
f 95//1 2//1 3//1
f 24//1 74//1 75//1
f 96//1 2//1 95//1
f 25//1 74//1 24//1
f 96//1 1//1 2//1
f 25//1 73//1 74//1
f 49//1 1//1 96//1
f 26//1 73//1 25//1
f 26//1 72//1 73//1
f 50//1 1//1 49//1
f 50//1 48//1 1//1
f 26//1 71//1 72//1
f 51//1 48//1 50//1
f 27//1 71//1 26//1
f 51//1 47//1 48//1
f 27//1 70//1 71//1
f 52//1 47//1 51//1
f 28//1 70//1 27//1
f 52//1 46//1 47//1
f 53//1 46//1 52//1
f 28//1 69//1 70//1
f 54//1 46//1 53//1
f 28//1 68//1 69//1
f 29//1 68//1 28//1
f 54//1 45//1 46//1
f 55//1 45//1 54//1
f 29//1 67//1 68//1
f 30//1 67//1 29//1
f 55//1 44//1 45//1
f 56//1 44//1 55//1
f 30//1 66//1 67//1
f 57//1 44//1 56//1
f 30//1 65//1 66//1
f 31//1 65//1 30//1
f 57//1 43//1 44//1
f 58//1 43//1 57//1
f 31//1 64//1 65//1
f 59//1 43//1 58//1
f 31//1 63//1 64//1
f 60//1 43//1 59//1
f 31//1 62//1 63//1
f 32//1 62//1 31//1
f 60//1 42//1 43//1
f 61//1 42//1 60//1
f 32//1 61//1 62//1
f 32//1 42//1 61//1
f 33//1 42//1 32//1
f 33//1 41//1 42//1
f 34//1 41//1 33//1
f 34//1 40//1 41//1
f 35//1 40//1 34//1
f 35//1 39//1 40//1
f 36//1 39//1 35//1
f 36//1 38//1 39//1
f 37//1 38//1 36//1
f 109//2 108//2 110//2
f 108//3 107//3 110//3
f 110//4 107//4 111//4
f 107//4 106//4 111//4
f 111//4 106//4 112//4
f 106//4 105//4 112//4
f 112//4 105//4 113//4
f 113//4 105//4 114//4
f 105//4 104//4 114//4
f 114//4 104//4 115//4
f 104//4 181//4 115//4
f 104//4 103//4 181//4
f 181//5 180//5 115//5
f 181//6 103//6 182//6
f 180//2 179//2 115//2
f 182//4 103//4 183//4
f 115//4 179//4 116//4
f 103//4 102//4 183//4
f 179//4 178//4 116//4
f 183//4 102//4 184//4
f 178//3 177//3 116//3
f 184//4 102//4 185//4
f 177//4 176//4 116//4
f 185//4 102//4 186//4
f 116//4 176//4 117//4
f 102//4 101//4 186//4
f 176//4 175//4 117//4
f 186//4 101//4 187//4
f 175//4 174//4 117//4
f 187//4 101//4 188//4
f 117//4 174//4 118//4
f 101//4 100//4 188//4
f 174//4 173//4 118//4
f 188//4 100//4 189//4
f 118//4 173//4 119//4
f 100//4 99//4 189//4
f 173//4 172//4 119//4
f 189//4 99//4 190//4
f 172//4 171//4 119//4
f 190//4 99//4 191//4
f 119//4 171//4 120//4
f 99//4 98//4 191//4
f 171//4 170//4 120//4
f 191//4 98//4 192//4
f 120//4 170//4 121//4
f 98//4 97//4 192//4
f 170//4 169//4 121//4
f 192//4 97//4 145//4
f 121//4 169//4 122//4
f 169//4 168//4 122//4
f 145//4 97//4 146//4
f 97//4 144//4 146//4
f 168//4 167//4 122//4
f 146//4 144//4 147//4
f 122//4 167//4 123//4
f 144//4 143//4 147//4
f 167//4 166//4 123//4
f 147//4 143//4 148//4
f 123//4 166//4 124//4
f 143//4 142//4 148//4
f 148//4 142//4 149//4
f 166//4 165//4 124//4
f 149//4 142//4 150//4
f 165//4 164//4 124//4
f 124//4 164//4 125//4
f 142//4 141//4 150//4
f 150//4 141//4 151//4
f 164//4 163//4 125//4
f 125//4 163//4 126//4
f 141//4 140//4 151//4
f 151//4 140//4 152//4
f 163//4 162//4 126//4
f 152//4 140//4 153//4
f 162//4 161//4 126//4
f 126//4 161//4 127//4
f 140//4 139//4 153//4
f 153//4 139//4 154//4
f 161//4 160//4 127//4
f 154//3 139//3 155//3
f 160//4 159//4 127//4
f 155//4 139//4 156//4
f 159//4 158//4 127//4
f 127//4 158//4 128//4
f 139//4 138//4 156//4
f 156//4 138//4 157//4
f 158//4 157//4 128//4
f 157//4 138//4 128//4
f 128//4 138//4 129//4
f 138//4 137//4 129//4
f 129//4 137//4 130//4
f 137//4 136//4 130//4
f 130//4 136//4 131//4
f 136//4 135//4 131//4
f 131//4 135//4 132//4
f 135//4 134//4 132//4
f 132//7 134//7 133//7
f 26//8 122//8 123//8
f 13//9 109//9 110//9
f 63//10 159//10 160//10
f 67//11 163//11 164//11
f 53//12 52//12 148//12
f 15//13 111//13 112//13
f 38//14 37//14 133//14
f 30//15 126//15 127//15
f 50//16 146//16 147//16
f 21//17 117//17 118//17
f 39//18 135//18 136//18
f 91//19 187//19 188//19
f 79//20 78//20 174//20
f 44//21 140//21 141//21
f 23//22 119//22 120//22
f 81//23 177//23 178//23
f 72//24 168//24 169//24
f 5//25 101//25 102//25
f 42//26 138//26 139//26
f 35//27 131//27 132//27
f 32//28 128//28 129//28
f 60//29 156//29 157//29
f 75//30 74//30 170//30
f 7//31 103//31 104//31
f 65//32 161//32 162//32
f 19//33 115//33 116//33
f 86//34 182//34 183//34
f 59//35 58//35 154//35
f 76//36 172//36 173//36
f 46//37 142//37 143//37
f 13//38 12//38 108//38
f 70//39 166//39 167//39
f 3//40 99//40 100//40
f 33//41 129//41 130//41
f 89//42 185//42 186//42
f 10//43 106//43 107//43
f 62//44 158//44 159//44
f 96//45 192//45 145//45
f 84//46 180//46 181//46
f 17//47 113//47 114//47
f 95//48 191//48 192//48
f 28//49 27//49 123//49
f 53//50 149//50 150//50
f 93//51 189//51 190//51
f 14//52 110//52 111//52
f 68//53 164//53 165//53
f 1//54 97//54 98//54
f 38//55 134//55 135//55
f 55//56 151//56 152//56
f 75//57 171//57 172//57
f 64//58 160//58 161//58
f 22//59 118//59 119//59
f 25//60 121//60 122//60
f 51//61 147//61 148//61
f 16//62 112//62 113//62
f 40//63 136//63 137//63
f 7//64 6//64 102//64
f 29//65 125//65 126//65
f 81//66 80//66 176//66
f 43//67 139//67 140//67
f 24//68 120//68 121//68
f 36//69 132//69 133//69
f 31//70 127//70 128//70
f 82//71 178//71 179//71
f 50//72 49//72 145//72
f 73//73 169//73 170//73
f 35//74 34//74 130//74
f 48//75 144//75 97//75
f 59//76 155//76 156//76
f 79//77 175//77 176//77
f 8//78 104//78 105//78
f 66//79 162//79 163//79
f 21//80 20//80 116//80
f 94//81 190//81 191//81
f 11//82 107//82 108//82
f 77//83 173//83 174//83
f 42//84 41//84 137//84
f 18//85 114//85 115//85
f 54//86 150//86 151//86
f 88//87 184//87 185//87
f 4//88 100//88 101//88
f 87//89 183//89 184//89
f 90//90 186//90 187//90
f 57//91 153//91 154//91
f 2//92 98//92 99//92
f 45//93 141//93 142//93
f 86//94 85//94 181//94
f 92//95 188//95 189//95
f 9//96 105//96 106//96
f 71//97 167//97 168//97
f 28//98 124//98 125//98
f 47//99 143//99 144//99
f 84//100 83//100 179//100
f 56//101 152//101 153//101
f 61//102 157//102 158//102
f 69//103 165//103 166//103
f 27//8 26//8 123//8
f 14//9 13//9 110//9
f 64//10 63//10 160//10
f 68//11 67//11 164//11
f 149//12 53//12 148//12
f 16//13 15//13 112//13
f 134//14 38//14 133//14
f 31//15 30//15 127//15
f 51//16 50//16 147//16
f 22//17 21//17 118//17
f 40//18 39//18 136//18
f 92//19 91//19 188//19
f 175//20 79//20 174//20
f 45//21 44//21 141//21
f 24//22 23//22 120//22
f 82//23 81//23 178//23
f 73//24 72//24 169//24
f 6//25 5//25 102//25
f 43//26 42//26 139//26
f 36//27 35//27 132//27
f 33//28 32//28 129//28
f 61//29 60//29 157//29
f 171//30 75//30 170//30
f 8//31 7//31 104//31
f 66//32 65//32 162//32
f 20//33 19//33 116//33
f 87//34 86//34 183//34
f 155//35 59//35 154//35
f 77//36 76//36 173//36
f 47//37 46//37 143//37
f 109//38 13//38 108//38
f 71//39 70//39 167//39
f 4//40 3//40 100//40
f 34//41 33//41 130//41
f 90//42 89//42 186//42
f 11//43 10//43 107//43
f 63//44 62//44 159//44
f 49//45 96//45 145//45
f 85//46 84//46 181//46
f 18//47 17//47 114//47
f 96//48 95//48 192//48
f 124//49 28//49 123//49
f 54//50 53//50 150//50
f 94//51 93//51 190//51
f 15//52 14//52 111//52
f 69//53 68//53 165//53
f 2//54 1//54 98//54
f 39//55 38//55 135//55
f 56//56 55//56 152//56
f 76//57 75//57 172//57
f 65//58 64//58 161//58
f 23//59 22//59 119//59
f 26//60 25//60 122//60
f 52//61 51//61 148//61
f 17//62 16//62 113//62
f 41//63 40//63 137//63
f 103//64 7//64 102//64
f 30//65 29//65 126//65
f 177//66 81//66 176//66
f 44//67 43//67 140//67
f 25//68 24//68 121//68
f 37//69 36//69 133//69
f 32//70 31//70 128//70
f 83//71 82//71 179//71
f 146//72 50//72 145//72
f 74//73 73//73 170//73
f 131//74 35//74 130//74
f 1//75 48//75 97//75
f 60//76 59//76 156//76
f 80//77 79//77 176//77
f 9//78 8//78 105//78
f 67//79 66//79 163//79
f 117//80 21//80 116//80
f 95//81 94//81 191//81
f 12//82 11//82 108//82
f 78//83 77//83 174//83
f 138//84 42//84 137//84
f 19//85 18//85 115//85
f 55//86 54//86 151//86
f 89//87 88//87 185//87
f 5//88 4//88 101//88
f 88//89 87//89 184//89
f 91//90 90//90 187//90
f 58//91 57//91 154//91
f 3//92 2//92 99//92
f 46//93 45//93 142//93
f 182//94 86//94 181//94
f 93//95 92//95 189//95
f 10//96 9//96 106//96
f 72//97 71//97 168//97
f 29//98 28//98 125//98
f 48//99 47//99 144//99
f 180//100 84//100 179//100
f 57//101 56//101 153//101
f 62//102 61//102 158//102
f 70//103 69//103 166//103
