# Blender v2.76 (sub 0) OBJ File: '1.blend'
# www.blender.org
mtllib 1.mtl
o Text_Mesh
v 0.449051 1.020844 -0.000000
v 0.302361 1.020844 -0.000000
v 0.302361 0.000000 0.000000
v 0.449051 0.000000 0.000000
v 0.449051 1.020844 -0.037421
v 0.302361 1.020844 -0.037421
v 0.302361 -0.000000 -0.037421
v 0.449051 -0.000000 -0.037421
v 0.427447 0.999239 -0.021605
v 0.323966 0.999239 -0.021605
v 0.323966 0.021605 -0.021605
v 0.427447 0.021605 -0.021605
v 0.427447 0.999239 -0.015816
v 0.323966 0.999239 -0.015816
v 0.323966 0.021605 -0.015816
v 0.427447 0.021605 -0.015816
vn 0.000000 0.000000 1.000000
vn 0.000000 -0.000000 -1.000000
vn 1.000000 -0.000000 0.000000
vn 0.000000 -1.000000 0.000000
vn 0.000000 1.000000 0.000000
vn -1.000000 0.000000 0.000000
usemtl None
s off
f 3//1 1//1 2//1
f 3//1 4//1 1//1
f 6//2 5//2 7//2
f 5//2 8//2 7//2
f 4//3 8//3 5//3
f 3//4 7//4 8//4
f 1//5 5//5 6//5
f 2//6 6//6 7//6
f 10//2 9//2 11//2
f 9//2 12//2 11//2
f 15//1 13//1 14//1
f 15//1 16//1 13//1
f 16//3 12//3 9//3
f 15//4 11//4 12//4
f 13//5 9//5 10//5
f 14//6 10//6 11//6
f 1//3 4//3 5//3
f 4//4 3//4 8//4
f 2//5 1//5 6//5
f 3//6 2//6 7//6
f 13//3 16//3 9//3
f 16//4 15//4 12//4
f 14//5 13//5 10//5
f 15//6 14//6 11//6
