# Blender v2.76 (sub 0) OBJ File: '2.blend'
# www.blender.org
mtllib 2.mtl
o Text_Mesh
v 0.688896 0.137484 -0.000000
v 0.303055 0.137484 -0.000000
v 0.356425 0.201758 -0.000000
v 0.404293 0.261156 -0.000000
v 0.446822 0.316222 -0.000000
v 0.484177 0.367499 -0.000000
v 0.516522 0.415532 -0.000000
v 0.544021 0.460866 -0.000000
v 0.566839 0.504043 -0.000000
v 0.585140 0.545609 -0.000000
v 0.599088 0.586107 -0.000000
v 0.608848 0.626081 -0.000000
v 0.614583 0.666076 -0.000000
v 0.616459 0.706636 -0.000000
v 0.613881 0.751961 -0.000000
v 0.606309 0.794637 -0.000000
v 0.593984 0.834418 -0.000000
v 0.577146 0.871058 -0.000000
v 0.556038 0.904310 -0.000000
v 0.530901 0.933927 -0.000000
v 0.501975 0.959665 -0.000000
v 0.469503 0.981275 -0.000000
v 0.433725 0.998511 -0.000000
v 0.394882 1.011129 -0.000000
v 0.353216 1.018879 -0.000000
v 0.308968 1.021518 -0.000000
v 0.288758 1.020869 -0.000000
v 0.268753 1.018917 -0.000000
v 0.248912 1.015651 -0.000000
v 0.229194 1.011060 -0.000000
v 0.209558 1.005135 -0.000000
v 0.189964 0.997865 -0.000000
v 0.170369 0.989239 -0.000000
v 0.150734 0.979249 -0.000000
v 0.131016 0.967883 -0.000000
v 0.111175 0.955130 -0.000000
v 0.091170 0.940982 -0.000000
v 0.070959 0.925427 -0.000000
v 0.070959 0.743594 -0.000000
v 0.091136 0.768008 -0.000000
v 0.111024 0.789600 -0.000000
v 0.130646 0.808501 -0.000000
v 0.150022 0.824847 -0.000000
v 0.169172 0.838769 -0.000000
v 0.188116 0.850402 -0.000000
v 0.206876 0.859880 -0.000000
v 0.225471 0.867335 -0.000000
v 0.243923 0.872901 -0.000000
v 0.262251 0.876711 -0.000000
v 0.280477 0.878900 -0.000000
v 0.298620 0.879599 -0.000000
v 0.322830 0.877993 -0.000000
v 0.345824 0.873282 -0.000000
v 0.367431 0.865624 -0.000000
v 0.387484 0.855179 -0.000000
v 0.405811 0.842106 -0.000000
v 0.422245 0.826564 -0.000000
v 0.436615 0.808713 -0.000000
v 0.448752 0.788710 -0.000000
v 0.458486 0.766716 -0.000000
v 0.465650 0.742889 -0.000000
v 0.470072 0.717389 -0.000000
v 0.471583 0.690374 -0.000000
v 0.471091 0.669979 -0.000000
v 0.469612 0.650775 -0.000000
v 0.467149 0.632535 -0.000000
v 0.463699 0.615035 -0.000000
v 0.459264 0.598048 -0.000000
v 0.453844 0.581349 -0.000000
v 0.447438 0.564711 -0.000000
v 0.440046 0.547908 -0.000000
v 0.431669 0.530716 -0.000000
v 0.422306 0.512908 -0.000000
v 0.411958 0.494258 -0.000000
v 0.400624 0.474540 -0.000000
v 0.377836 0.437231 -0.000000
v 0.352599 0.398680 -0.000000
v 0.325299 0.359185 -0.000000
v 0.296321 0.319043 -0.000000
v 0.266049 0.278552 -0.000000
v 0.234868 0.238009 -0.000000
v 0.203164 0.197713 -0.000000
v 0.171321 0.157961 -0.000000
v 0.139724 0.119051 -0.000000
v 0.108759 0.081280 -0.000000
v 0.078810 0.044947 -0.000000
v 0.050263 0.010348 -0.000000
v 0.050263 0.000000 0.000000
v 0.688896 0.000000 0.000000
v 0.688896 0.137484 -0.036958
v 0.303055 0.137484 -0.036958
v 0.356425 0.201758 -0.036958
v 0.404293 0.261156 -0.036958
v 0.446822 0.316222 -0.036958
v 0.484177 0.367499 -0.036957
v 0.516522 0.415532 -0.036958
v 0.544021 0.460866 -0.036958
v 0.566839 0.504043 -0.036957
v 0.585140 0.545609 -0.036958
v 0.599088 0.586107 -0.036958
v 0.608848 0.626081 -0.036958
v 0.614583 0.666076 -0.036958
v 0.616459 0.706636 -0.036958
v 0.613881 0.751961 -0.036958
v 0.606309 0.794637 -0.036958
v 0.593984 0.834418 -0.036957
v 0.577146 0.871058 -0.036958
v 0.556038 0.904310 -0.036958
v 0.530901 0.933927 -0.036958
v 0.501975 0.959665 -0.036957
v 0.469503 0.981275 -0.036958
v 0.433725 0.998511 -0.036958
v 0.394882 1.011129 -0.036958
v 0.353216 1.018879 -0.036958
v 0.308968 1.021518 -0.036958
v 0.288758 1.020869 -0.036957
v 0.268753 1.018917 -0.036958
v 0.248912 1.015651 -0.036958
v 0.229194 1.011060 -0.036958
v 0.209558 1.005135 -0.036958
v 0.189964 0.997865 -0.036958
v 0.170369 0.989239 -0.036957
v 0.150734 0.979249 -0.036958
v 0.131016 0.967883 -0.036958
v 0.111175 0.955130 -0.036957
v 0.091170 0.940982 -0.036958
v 0.070959 0.925427 -0.036958
v 0.070959 0.743594 -0.036958
v 0.091136 0.768008 -0.036958
v 0.111024 0.789600 -0.036958
v 0.130646 0.808501 -0.036958
v 0.150022 0.824847 -0.036958
v 0.169172 0.838769 -0.036957
v 0.188116 0.850402 -0.036958
v 0.206876 0.859880 -0.036958
v 0.225471 0.867335 -0.036958
v 0.243923 0.872901 -0.036958
v 0.262251 0.876711 -0.036958
v 0.280477 0.878900 -0.036958
v 0.298620 0.879599 -0.036958
v 0.322830 0.877993 -0.036958
v 0.345824 0.873282 -0.036958
v 0.367431 0.865624 -0.036957
v 0.387484 0.855179 -0.036958
v 0.405811 0.842106 -0.036958
v 0.422245 0.826564 -0.036957
v 0.436615 0.808713 -0.036958
v 0.448752 0.788710 -0.036958
v 0.458486 0.766716 -0.036958
v 0.465650 0.742889 -0.036958
v 0.470072 0.717389 -0.036957
v 0.471583 0.690374 -0.036958
v 0.471091 0.669979 -0.036957
v 0.469612 0.650775 -0.036958
v 0.467149 0.632535 -0.036958
v 0.463699 0.615035 -0.036958
v 0.459264 0.598048 -0.036958
v 0.453844 0.581349 -0.036958
v 0.447438 0.564711 -0.036958
v 0.440046 0.547908 -0.036958
v 0.431669 0.530716 -0.036958
v 0.422306 0.512908 -0.036958
v 0.411958 0.494258 -0.036958
v 0.400624 0.474540 -0.036958
v 0.377836 0.437231 -0.036958
v 0.352599 0.398680 -0.036958
v 0.325299 0.359185 -0.036957
v 0.296321 0.319043 -0.036958
v 0.266049 0.278552 -0.036958
v 0.234868 0.238009 -0.036958
v 0.203164 0.197713 -0.036958
v 0.171321 0.157961 -0.036957
v 0.139724 0.119051 -0.036958
v 0.108759 0.081280 -0.036958
v 0.078810 0.044947 -0.036957
v 0.050263 0.010348 -0.036958
v 0.050263 -0.000000 -0.036958
v 0.688896 -0.000000 -0.036958
vn 0.000000 0.000000 1.000000
vn -0.000000 -0.000600 -1.000000
vn 0.000000 0.000600 -1.000000
vn 0.000000 0.000000 -1.000000
vn -0.000000 -0.000100 -1.000000
vn -0.000000 0.000100 -1.000000
vn -0.000000 -0.000200 -1.000000
vn -0.032100 0.999500 0.000000
vn 0.998900 -0.046200 0.000000
vn -0.967600 0.252600 0.000000
vn -0.999700 0.024200 0.000000
vn 0.984600 0.174700 0.000000
vn -0.200700 -0.979600 0.000000
vn -0.609900 0.792500 0.000000
vn -0.288900 0.957400 0.000000
vn 0.038500 -0.999300 0.000000
vn 0.554000 0.832500 0.000000
vn 0.770800 -0.637000 0.000000
vn -0.810800 0.585300 0.000000
vn 0.523300 -0.852200 0.000000
vn 0.308900 0.951100 0.000000
vn -0.785900 0.618300 0.000000
vn 0.808300 -0.588800 0.000000
vn -0.885100 0.465400 0.000000
vn 0.644800 -0.764300 0.000000
vn -0.540700 0.841200 0.000000
vn -0.402900 0.915300 0.000000
vn 0.855000 -0.518600 0.000000
vn -0.867000 0.498300 0.000000
vn -0.957700 -0.287900 0.000000
vn -0.771300 0.636400 -0.000000
vn -0.991000 0.133900 0.000000
vn 0.762400 0.647100 0.000000
vn -0.836700 0.547700 0.000000
vn -0.854900 -0.518700 0.000000
vn 0.372100 -0.928200 0.000000
vn 0.989900 -0.141900 0.000000
vn 0.778600 -0.627500 0.000000
vn -0.915300 0.402700 0.000000
vn 0.945500 -0.325600 0.000000
vn -0.453500 0.891300 0.000000
vn -0.998400 -0.055900 0.000000
vn -0.773300 0.634000 0.000000
vn 0.908700 0.417600 0.000000
vn 0.203500 -0.979100 0.000000
vn -0.097100 0.995300 0.000000
vn 0.998400 0.056800 0.000000
vn -0.334000 -0.942600 0.000000
vn 0.000000 1.000000 0.000000
vn -0.951100 0.308700 0.000000
vn -1.000000 0.000000 0.000000
vn -0.853400 0.521300 0.000000
vn -0.580700 -0.814100 0.000000
vn -0.997100 0.076700 0.000000
vn 0.434000 0.900900 0.000000
vn 0.059500 0.998200 0.000000
vn 0.955200 0.295900 0.000000
vn -0.066200 -0.997800 0.000000
vn 0.735500 -0.677500 0.000000
vn 0.829500 -0.558600 0.000000
vn -0.792700 0.609600 0.000000
vn -0.226800 0.974000 0.000000
vn 0.588000 -0.808800 0.000000
vn 0.182900 0.983100 0.000000
vn -0.780500 0.625200 0.000000
vn -0.577400 0.816400 0.000000
vn -0.347900 0.937500 0.000000
vn 1.000000 -0.000000 0.000000
vn -0.874400 0.485200 0.000000
vn 0.119200 -0.992900 0.000000
vn -0.499400 0.866400 0.000000
vn -0.800900 0.598800 0.000000
vn 0.884100 -0.467200 0.000000
vn -0.914400 -0.404700 0.000000
vn -0.981100 0.193400 0.000000
vn 0.664700 0.747100 0.000000
vn 0.971500 -0.237200 0.000000
vn -0.822600 0.568600 0.000000
vn 0.844300 0.535900 0.000000
vn 0.693800 -0.720200 0.000000
vn 0.000000 -1.000000 0.000000
vn -0.462000 -0.886900 0.000000
vn 0.791400 -0.611300 0.000000
vn 0.769300 -0.638800 0.000000
vn -0.779000 -0.627000 0.000000
vn -0.771600 0.636100 0.000000
vn 0.450900 -0.892600 0.000000
vn 0.915200 -0.403000 0.000000
vn -0.899000 0.438000 0.000000
vn -0.776300 0.630400 0.000000
vn 0.288800 -0.957400 0.000000
vn -0.162400 0.986700 0.000000
vn -0.687100 -0.726500 0.000000
vn -0.933200 0.359300 0.000000
vn -0.985300 -0.170900 0.000000
vn -0.885100 0.465300 0.000000
usemtl None
s off
f 27//1 25//1 26//1
f 28//1 25//1 27//1
f 29//1 25//1 28//1
f 29//1 24//1 25//1
f 30//1 24//1 29//1
f 30//1 23//1 24//1
f 31//1 23//1 30//1
f 32//1 23//1 31//1
f 32//1 22//1 23//1
f 33//1 22//1 32//1
f 34//1 22//1 33//1
f 34//1 21//1 22//1
f 35//1 21//1 34//1
f 36//1 21//1 35//1
f 36//1 20//1 21//1
f 37//1 20//1 36//1
f 38//1 20//1 37//1
f 38//1 19//1 20//1
f 39//1 40//1 38//1
f 40//1 41//1 38//1
f 41//1 42//1 38//1
f 42//1 43//1 38//1
f 43//1 44//1 38//1
f 44//1 45//1 38//1
f 45//1 46//1 38//1
f 46//1 47//1 38//1
f 47//1 48//1 38//1
f 48//1 49//1 38//1
f 49//1 50//1 38//1
f 50//1 19//1 38//1
f 50//1 51//1 19//1
f 51//1 18//1 19//1
f 52//1 18//1 51//1
f 53//1 18//1 52//1
f 54//1 18//1 53//1
f 54//1 17//1 18//1
f 55//1 17//1 54//1
f 56//1 17//1 55//1
f 57//1 17//1 56//1
f 57//1 16//1 17//1
f 58//1 16//1 57//1
f 59//1 16//1 58//1
f 59//1 15//1 16//1
f 60//1 15//1 59//1
f 61//1 15//1 60//1
f 61//1 14//1 15//1
f 62//1 14//1 61//1
f 63//1 14//1 62//1
f 63//1 13//1 14//1
f 64//1 13//1 63//1
f 65//1 13//1 64//1
f 65//1 12//1 13//1
f 66//1 12//1 65//1
f 67//1 12//1 66//1
f 67//1 11//1 12//1
f 68//1 11//1 67//1
f 69//1 11//1 68//1
f 69//1 10//1 11//1
f 70//1 10//1 69//1
f 71//1 10//1 70//1
f 72//1 10//1 71//1
f 72//1 9//1 10//1
f 73//1 9//1 72//1
f 74//1 9//1 73//1
f 74//1 8//1 9//1
f 75//1 8//1 74//1
f 76//1 8//1 75//1
f 76//1 7//1 8//1
f 77//1 7//1 76//1
f 77//1 6//1 7//1
f 78//1 6//1 77//1
f 78//1 5//1 6//1
f 79//1 5//1 78//1
f 80//1 5//1 79//1
f 80//1 4//1 5//1
f 81//1 4//1 80//1
f 81//1 3//1 4//1
f 82//1 3//1 81//1
f 82//1 2//1 3//1
f 83//1 2//1 82//1
f 84//1 2//1 83//1
f 84//1 1//1 2//1
f 84//1 89//1 1//1
f 85//1 89//1 84//1
f 86//1 89//1 85//1
f 87//1 89//1 86//1
f 88//1 89//1 87//1
f 115//2 114//2 116//2
f 116//3 114//3 117//3
f 117//4 114//4 118//4
f 114//4 113//4 118//4
f 118//4 113//4 119//4
f 113//4 112//4 119//4
f 119//4 112//4 120//4
f 120//4 112//4 121//4
f 112//4 111//4 121//4
f 121//5 111//5 122//5
f 122//6 111//6 123//6
f 111//5 110//5 123//5
f 123//4 110//4 124//4
f 124//5 110//5 125//5
f 110//4 109//4 125//4
f 125//6 109//6 126//6
f 126//4 109//4 127//4
f 109//4 108//4 127//4
f 127//4 129//4 128//4
f 127//4 130//4 129//4
f 127//4 131//4 130//4
f 127//4 132//4 131//4
f 127//4 133//4 132//4
f 127//4 134//4 133//4
f 127//4 135//4 134//4
f 127//4 136//4 135//4
f 127//4 137//4 136//4
f 127//4 138//4 137//4
f 127//4 139//4 138//4
f 127//4 108//4 139//4
f 108//4 140//4 139//4
f 108//4 107//4 140//4
f 140//4 107//4 141//4
f 141//4 107//4 142//4
f 142//7 107//7 143//7
f 107//4 106//4 143//4
f 143//6 106//6 144//6
f 144//4 106//4 145//4
f 145//5 106//5 146//5
f 106//4 105//4 146//4
f 146//6 105//6 147//6
f 147//4 105//4 148//4
f 105//4 104//4 148//4
f 148//4 104//4 149//4
f 149//4 104//4 150//4
f 104//4 103//4 150//4
f 150//4 103//4 151//4
f 151//4 103//4 152//4
f 103//4 102//4 152//4
f 152//5 102//5 153//5
f 153//6 102//6 154//6
f 102//4 101//4 154//4
f 154//4 101//4 155//4
f 155//4 101//4 156//4
f 101//4 100//4 156//4
f 156//4 100//4 157//4
f 157//4 100//4 158//4
f 100//4 99//4 158//4
f 158//4 99//4 159//4
f 159//4 99//4 160//4
f 160//4 99//4 161//4
f 99//4 98//4 161//4
f 161//4 98//4 162//4
f 162//4 98//4 163//4
f 98//4 97//4 163//4
f 163//4 97//4 164//4
f 164//4 97//4 165//4
f 97//4 96//4 165//4
f 165//4 96//4 166//4
f 96//4 95//4 166//4
f 166//4 95//4 167//4
f 95//4 94//4 167//4
f 167//4 94//4 168//4
f 168//4 94//4 169//4
f 94//4 93//4 169//4
f 169//4 93//4 170//4
f 93//4 92//4 170//4
f 170//4 92//4 171//4
f 92//4 91//4 171//4
f 171//4 91//4 172//4
f 172//4 91//4 173//4
f 91//4 90//4 173//4
f 90//4 178//4 173//4
f 173//4 178//4 174//4
f 174//4 178//4 175//4
f 175//4 178//4 176//4
f 176//4 178//4 177//4
f 26//8 115//8 116//8
f 13//9 102//9 103//9
f 67//10 156//10 157//10
f 63//11 152//11 153//11
f 15//12 104//12 105//12
f 52//13 141//13 142//13
f 37//14 126//14 127//14
f 30//15 119//15 120//15
f 50//16 139//16 140//16
f 22//17 21//17 110//17
f 39//18 128//18 129//18
f 79//19 78//19 167//19
f 45//20 44//20 133//20
f 23//21 112//21 113//21
f 81//22 170//22 171//22
f 5//23 94//23 95//23
f 72//24 161//24 162//24
f 42//25 131//25 132//25
f 35//26 124//26 125//26
f 32//27 121//27 122//27
f 7//28 96//28 97//28
f 74//29 163//29 164//29
f 60//30 149//30 150//30
f 87//31 86//31 175//31
f 65//32 154//32 155//32
f 19//33 108//33 109//33
f 76//34 165//34 166//34
f 58//35 147//35 148//35
f 46//36 135//36 136//36
f 12//37 101//37 102//37
f 3//38 92//38 93//38
f 70//39 159//39 160//39
f 10//40 99//40 100//40
f 34//41 33//41 122//41
f 63//42 62//42 151//42
f 84//43 173//43 174//43
f 18//44 17//44 106//44
f 48//45 137//45 138//45
f 28//46 27//46 116//46
f 14//47 103//47 104//47
f 53//48 142//48 143//48
f 1//49 90//49 91//49
f 68//50 157//50 158//50
f 38//51 127//51 128//51
f 75//52 164//52 165//52
f 55//53 144//53 145//53
f 65//54 64//54 153//54
f 22//55 111//55 112//55
f 25//56 114//56 115//56
f 16//57 105//57 106//57
f 51//58 140//58 141//58
f 40//59 129//59 130//59
f 7//60 6//60 95//60
f 80//61 169//61 170//61
f 29//62 118//62 119//62
f 43//63 132//63 133//63
f 24//64 113//64 114//64
f 82//65 171//65 172//65
f 37//66 36//66 125//66
f 31//67 120//67 121//67
f 89//68 178//68 90//68
f 73//69 162//69 163//69
f 49//70 138//70 139//70
f 34//71 123//71 124//71
f 79//72 168//72 169//72
f 8//73 97//73 98//73
f 59//74 148//74 149//74
f 66//75 155//75 156//75
f 20//76 109//76 110//76
f 11//77 100//77 101//77
f 77//78 166//78 167//78
f 18//79 107//79 108//79
f 41//80 130//80 131//80
f 88//81 177//81 178//81
f 55//82 54//82 143//82
f 4//83 93//83 94//83
f 87//51 176//51 177//51
f 2//84 91//84 92//84
f 58//85 57//85 146//85
f 85//86 174//86 175//86
f 45//87 134//87 135//87
f 10//88 9//88 98//88
f 71//89 160//89 161//89
f 84//90 83//90 172//90
f 47//91 136//91 137//91
f 28//92 117//92 118//92
f 56//93 145//93 146//93
f 69//94 158//94 159//94
f 61//95 150//95 151//95
f 27//8 26//8 116//8
f 14//9 13//9 103//9
f 68//10 67//10 157//10
f 64//11 63//11 153//11
f 16//12 15//12 105//12
f 53//13 52//13 142//13
f 38//14 37//14 127//14
f 31//15 30//15 120//15
f 51//16 50//16 140//16
f 111//17 22//17 110//17
f 40//18 39//18 129//18
f 168//19 79//19 167//19
f 134//20 45//20 133//20
f 24//21 23//21 113//21
f 82//22 81//22 171//22
f 6//23 5//23 95//23
f 73//96 72//96 162//96
f 43//25 42//25 132//25
f 36//26 35//26 125//26
f 33//27 32//27 122//27
f 8//28 7//28 97//28
f 75//29 74//29 164//29
f 61//30 60//30 150//30
f 176//31 87//31 175//31
f 66//32 65//32 155//32
f 20//33 19//33 109//33
f 77//34 76//34 166//34
f 59//35 58//35 148//35
f 47//36 46//36 136//36
f 13//37 12//37 102//37
f 4//38 3//38 93//38
f 71//39 70//39 160//39
f 11//40 10//40 100//40
f 123//41 34//41 122//41
f 152//42 63//42 151//42
f 85//43 84//43 174//43
f 107//44 18//44 106//44
f 49//45 48//45 138//45
f 117//46 28//46 116//46
f 15//47 14//47 104//47
f 54//48 53//48 143//48
f 2//49 1//49 91//49
f 69//50 68//50 158//50
f 39//51 38//51 128//51
f 76//52 75//52 165//52
f 56//53 55//53 145//53
f 154//54 65//54 153//54
f 23//55 22//55 112//55
f 26//56 25//56 115//56
f 17//57 16//57 106//57
f 52//58 51//58 141//58
f 41//59 40//59 130//59
f 96//60 7//60 95//60
f 81//61 80//61 170//61
f 30//62 29//62 119//62
f 44//63 43//63 133//63
f 25//64 24//64 114//64
f 83//65 82//65 172//65
f 126//66 37//66 125//66
f 32//67 31//67 121//67
f 1//68 89//68 90//68
f 74//69 73//69 163//69
f 50//70 49//70 139//70
f 35//71 34//71 124//71
f 80//72 79//72 169//72
f 9//73 8//73 98//73
f 60//74 59//74 149//74
f 67//75 66//75 156//75
f 21//76 20//76 110//76
f 12//77 11//77 101//77
f 78//78 77//78 167//78
f 19//79 18//79 108//79
f 42//80 41//80 131//80
f 89//81 88//81 178//81
f 144//82 55//82 143//82
f 5//83 4//83 94//83
f 88//51 87//51 177//51
f 3//84 2//84 92//84
f 147//85 58//85 146//85
f 86//86 85//86 175//86
f 46//87 45//87 135//87
f 99//88 10//88 98//88
f 72//89 71//89 161//89
f 173//90 84//90 172//90
f 48//91 47//91 137//91
f 29//92 28//92 118//92
f 57//93 56//93 146//93
f 70//94 69//94 159//94
f 62//95 61//95 151//95
