# Blender v2.76 (sub 0) OBJ File: '4.blend'
# www.blender.org
mtllib 4.mtl
o Text_Mesh
v 0.595210 1.033392 -0.000000
v 0.532399 1.033392 -0.000000
v 0.016451 0.402290 -0.000000
v 0.016451 0.334993 -0.000000
v 0.448651 0.334993 -0.000000
v 0.448651 0.000000 0.000000
v 0.595210 0.000000 0.000000
v 0.595210 0.334993 -0.000000
v 0.704382 0.334993 -0.000000
v 0.704382 0.466597 -0.000000
v 0.595210 0.466597 -0.000000
v 0.445660 0.756724 -0.000000
v 0.448651 0.756724 -0.000000
v 0.448651 0.466597 -0.000000
v 0.212361 0.466597 -0.000000
v 0.595210 1.033392 -0.037388
v 0.532399 1.033392 -0.037388
v 0.016451 0.402290 -0.037388
v 0.016451 0.334993 -0.037388
v 0.448651 0.334993 -0.037388
v 0.448651 -0.000000 -0.037386
v 0.595210 -0.000000 -0.037388
v 0.595210 0.334993 -0.037386
v 0.704382 0.334993 -0.037386
v 0.704382 0.466597 -0.037388
v 0.595210 0.466597 -0.037388
v 0.445660 0.756724 -0.037388
v 0.448651 0.756724 -0.037388
v 0.448651 0.466597 -0.037388
v 0.212361 0.466597 -0.037388
vn 0.000000 0.000000 1.000000
vn 0.000000 -0.000000 -1.000000
vn 0.000000 0.999500 -0.030200
vn 0.000000 -1.000000 0.000000
vn -1.000000 0.000000 0.000000
vn 1.000000 0.000000 0.000000
vn 0.000000 1.000000 0.000000
vn -0.774200 0.632900 0.000000
vn 0.779300 -0.626700 0.000000
usemtl None
s off
f 3//1 1//1 2//1
f 3//1 12//1 1//1
f 12//1 13//1 1//1
f 13//1 11//1 1//1
f 3//1 15//1 12//1
f 14//1 11//1 13//1
f 3//1 14//1 15//1
f 3//1 11//1 14//1
f 3//1 10//1 11//1
f 3//1 9//1 10//1
f 4//1 9//1 3//1
f 5//1 9//1 4//1
f 6//1 8//1 5//1
f 8//1 9//1 5//1
f 6//1 7//1 8//1
f 17//2 16//2 18//2
f 16//2 27//2 18//2
f 16//2 28//2 27//2
f 16//2 26//2 28//2
f 27//2 30//2 18//2
f 28//2 26//2 29//2
f 30//2 29//2 18//2
f 29//2 26//2 18//2
f 26//2 25//2 18//2
f 25//2 24//2 18//2
f 18//2 24//2 19//2
f 19//3 24//3 20//3
f 20//2 23//2 21//2
f 20//4 24//4 23//4
f 23//2 22//2 21//2
f 8//4 23//4 24//4
f 13//5 28//5 29//5
f 11//6 26//6 16//6
f 12//4 27//4 28//4
f 3//5 18//5 19//5
f 4//4 19//4 20//4
f 10//7 25//7 26//7
f 7//4 6//4 21//4
f 2//8 17//8 18//8
f 10//6 9//6 24//6
f 5//5 20//5 21//5
f 14//7 29//7 30//7
f 15//9 30//9 27//9
f 1//7 16//7 17//7
f 7//6 22//6 23//6
f 9//4 8//4 24//4
f 14//5 13//5 29//5
f 1//6 11//6 16//6
f 13//4 12//4 28//4
f 4//5 3//5 19//5
f 5//4 4//4 20//4
f 11//7 10//7 26//7
f 22//4 7//4 21//4
f 3//8 2//8 18//8
f 25//6 10//6 24//6
f 6//5 5//5 21//5
f 15//7 14//7 30//7
f 12//9 15//9 27//9
f 2//7 1//7 17//7
f 8//6 7//6 23//6
