# Blender v2.76 (sub 0) OBJ File: '6.blend'
# www.blender.org
mtllib 6.mtl
o Text_Mesh
v 0.471039 1.026776 -0.000000
v 0.407807 0.981404 -0.000000
v 0.349668 0.933128 -0.000000
v 0.296698 0.882200 -0.000000
v 0.248975 0.828872 -0.000000
v 0.206577 0.773399 -0.000000
v 0.169581 0.716031 -0.000000
v 0.138065 0.657023 -0.000000
v 0.112105 0.596627 -0.000000
v 0.091779 0.535096 -0.000000
v 0.077165 0.472683 -0.000000
v 0.068340 0.409640 -0.000000
v 0.065381 0.346221 -0.000000
v 0.068096 0.294196 -0.000000
v 0.076078 0.245288 -0.000000
v 0.089086 0.199764 -0.000000
v 0.106877 0.157894 -0.000000
v 0.129208 0.119944 -0.000000
v 0.155837 0.086184 -0.000000
v 0.186521 0.056881 -0.000000
v 0.221018 0.032305 -0.000000
v 0.259085 0.012723 -0.000000
v 0.300481 -0.001596 0.000000
v 0.344961 -0.010384 0.000000
v 0.392285 -0.013373 0.000000
v 0.432186 -0.010559 0.000000
v 0.470647 -0.002373 0.000000
v 0.507282 0.010796 -0.000000
v 0.541703 0.028563 -0.000000
v 0.573524 0.050540 -0.000000
v 0.602358 0.076340 -0.000000
v 0.627817 0.105576 -0.000000
v 0.649515 0.137861 -0.000000
v 0.667065 0.172809 -0.000000
v 0.680080 0.210032 -0.000000
v 0.688173 0.249143 -0.000000
v 0.690956 0.289756 -0.000000
v 0.688465 0.330847 -0.000000
v 0.681181 0.369962 -0.000000
v 0.669387 0.406796 -0.000000
v 0.653368 0.441045 -0.000000
v 0.633407 0.472405 -0.000000
v 0.609787 0.500572 -0.000000
v 0.582794 0.525240 -0.000000
v 0.552710 0.546106 -0.000000
v 0.519819 0.562865 -0.000000
v 0.484405 0.575212 -0.000000
v 0.446753 0.582844 -0.000000
v 0.407144 0.585455 -0.000000
v 0.390735 0.585034 -0.000000
v 0.374935 0.583818 -0.000000
v 0.359734 0.581880 -0.000000
v 0.345120 0.579292 -0.000000
v 0.331085 0.576125 -0.000000
v 0.317617 0.572454 -0.000000
v 0.304706 0.568348 -0.000000
v 0.292342 0.563882 -0.000000
v 0.280515 0.559127 -0.000000
v 0.269214 0.554155 -0.000000
v 0.258429 0.549038 -0.000000
v 0.248150 0.543849 -0.000000
v 0.260276 0.579224 -0.000000
v 0.275695 0.614603 -0.000000
v 0.294167 0.649745 -0.000000
v 0.315457 0.684407 -0.000000
v 0.339326 0.718347 -0.000000
v 0.365538 0.751322 -0.000000
v 0.393855 0.783090 -0.000000
v 0.424040 0.813408 -0.000000
v 0.455855 0.842033 -0.000000
v 0.489063 0.868724 -0.000000
v 0.523426 0.893238 -0.000000
v 0.558709 0.915331 -0.000000
v 0.216945 0.393771 -0.000000
v 0.232334 0.403563 -0.000000
v 0.246685 0.412180 -0.000000
v 0.260200 0.419682 -0.000000
v 0.273080 0.426131 -0.000000
v 0.285528 0.431590 -0.000000
v 0.297743 0.436120 -0.000000
v 0.309927 0.439783 -0.000000
v 0.322281 0.442641 -0.000000
v 0.335007 0.444757 -0.000000
v 0.348306 0.446191 -0.000000
v 0.362378 0.447006 -0.000000
v 0.377426 0.447264 -0.000000
v 0.401019 0.445897 -0.000000
v 0.423400 0.441898 -0.000000
v 0.444408 0.435423 -0.000000
v 0.463885 0.426626 -0.000000
v 0.481668 0.415662 -0.000000
v 0.497600 0.402686 -0.000000
v 0.511519 0.387853 -0.000000
v 0.523267 0.371317 -0.000000
v 0.532682 0.353233 -0.000000
v 0.539605 0.333756 -0.000000
v 0.543876 0.313040 -0.000000
v 0.545335 0.291242 -0.000000
v 0.543993 0.267053 -0.000000
v 0.540045 0.244346 -0.000000
v 0.533610 0.223237 -0.000000
v 0.524808 0.203847 -0.000000
v 0.513755 0.186294 -0.000000
v 0.500572 0.170696 -0.000000
v 0.485376 0.157172 -0.000000
v 0.468287 0.145841 -0.000000
v 0.449423 0.136821 -0.000000
v 0.428903 0.130232 -0.000000
v 0.406846 0.126191 -0.000000
v 0.383369 0.124818 -0.000000
v 0.357194 0.126932 -0.000000
v 0.331726 0.133183 -0.000000
v 0.307424 0.143438 -0.000000
v 0.284748 0.157563 -0.000000
v 0.264155 0.175424 -0.000000
v 0.246107 0.196885 -0.000000
v 0.231061 0.221814 -0.000000
v 0.219477 0.250076 -0.000000
v 0.211814 0.281537 -0.000000
v 0.208532 0.316062 -0.000000
v 0.210089 0.353518 -0.000000
v 0.471039 1.026776 -0.037148
v 0.407807 0.981404 -0.037148
v 0.349668 0.933128 -0.037148
v 0.296698 0.882200 -0.037148
v 0.248975 0.828872 -0.037148
v 0.206577 0.773399 -0.037148
v 0.169581 0.716031 -0.037148
v 0.138065 0.657023 -0.037147
v 0.112105 0.596627 -0.037148
v 0.091779 0.535096 -0.037148
v 0.077165 0.472683 -0.037148
v 0.068340 0.409640 -0.037147
v 0.065381 0.346221 -0.037148
v 0.068096 0.294196 -0.037148
v 0.076078 0.245288 -0.037148
v 0.089086 0.199764 -0.037148
v 0.106877 0.157894 -0.037148
v 0.129208 0.119944 -0.037148
v 0.155837 0.086184 -0.037148
v 0.186521 0.056881 -0.037148
v 0.221018 0.032305 -0.037148
v 0.259085 0.012723 -0.037148
v 0.300481 -0.001596 -0.037148
v 0.344961 -0.010384 -0.037148
v 0.392285 -0.013373 -0.037148
v 0.432186 -0.010559 -0.037148
v 0.470647 -0.002373 -0.037148
v 0.507282 0.010796 -0.037148
v 0.541703 0.028563 -0.037147
v 0.573524 0.050540 -0.037148
v 0.602358 0.076340 -0.037148
v 0.627817 0.105576 -0.037148
v 0.649515 0.137861 -0.037148
v 0.667065 0.172809 -0.037147
v 0.680080 0.210032 -0.037148
v 0.688173 0.249143 -0.037148
v 0.690956 0.289756 -0.037148
v 0.688465 0.330847 -0.037148
v 0.681181 0.369962 -0.037148
v 0.669387 0.406796 -0.037148
v 0.653368 0.441045 -0.037148
v 0.633407 0.472405 -0.037148
v 0.609787 0.500572 -0.037148
v 0.582794 0.525240 -0.037148
v 0.552710 0.546106 -0.037148
v 0.519819 0.562865 -0.037148
v 0.484405 0.575212 -0.037148
v 0.446753 0.582844 -0.037148
v 0.407144 0.585455 -0.037148
v 0.390735 0.585034 -0.037147
v 0.374935 0.583818 -0.037148
v 0.359734 0.581880 -0.037148
v 0.345120 0.579292 -0.037148
v 0.331085 0.576125 -0.037148
v 0.317617 0.572454 -0.037148
v 0.304706 0.568348 -0.037148
v 0.292342 0.563882 -0.037148
v 0.280515 0.559127 -0.037148
v 0.269214 0.554155 -0.037148
v 0.258429 0.549038 -0.037148
v 0.248150 0.543849 -0.037148
v 0.260276 0.579224 -0.037148
v 0.275695 0.614603 -0.037147
v 0.294167 0.649745 -0.037148
v 0.315457 0.684407 -0.037147
v 0.339326 0.718347 -0.037148
v 0.365538 0.751322 -0.037148
v 0.393855 0.783090 -0.037148
v 0.424040 0.813408 -0.037148
v 0.455855 0.842033 -0.037147
v 0.489063 0.868724 -0.037148
v 0.523426 0.893238 -0.037148
v 0.558709 0.915331 -0.037148
v 0.216945 0.393771 -0.037147
v 0.232334 0.403563 -0.037148
v 0.246685 0.412180 -0.037148
v 0.260200 0.419682 -0.037148
v 0.273080 0.426131 -0.037148
v 0.285528 0.431590 -0.037147
v 0.297743 0.436120 -0.037148
v 0.309927 0.439783 -0.037147
v 0.322281 0.442641 -0.037148
v 0.335007 0.444757 -0.037147
v 0.348306 0.446191 -0.037147
v 0.362378 0.447006 -0.037148
v 0.377426 0.447264 -0.037147
v 0.401019 0.445897 -0.037148
v 0.423400 0.441898 -0.037148
v 0.444408 0.435423 -0.037148
v 0.463885 0.426626 -0.037147
v 0.481668 0.415662 -0.037148
v 0.497600 0.402686 -0.037148
v 0.511519 0.387853 -0.037148
v 0.523267 0.371317 -0.037148
v 0.532682 0.353233 -0.037148
v 0.539605 0.333756 -0.037148
v 0.543876 0.313040 -0.037148
v 0.545335 0.291242 -0.037148
v 0.543993 0.267053 -0.037148
v 0.540045 0.244346 -0.037148
v 0.533610 0.223237 -0.037148
v 0.524808 0.203847 -0.037148
v 0.513755 0.186294 -0.037148
v 0.500572 0.170696 -0.037148
v 0.485376 0.157172 -0.037148
v 0.468287 0.145841 -0.037148
v 0.449423 0.136821 -0.037148
v 0.428903 0.130232 -0.037148
v 0.406846 0.126191 -0.037148
v 0.383369 0.124818 -0.037148
v 0.357194 0.126932 -0.037148
v 0.331726 0.133183 -0.037148
v 0.307424 0.143438 -0.037148
v 0.284748 0.157563 -0.037148
v 0.264155 0.175424 -0.037148
v 0.246107 0.196885 -0.037148
v 0.231061 0.221814 -0.037148
v 0.219477 0.250076 -0.037148
v 0.211814 0.281537 -0.037148
v 0.208532 0.316062 -0.037147
v 0.210089 0.353518 -0.037148
vn -0.000000 0.000000 1.000000
vn 0.000000 -0.000000 -1.000000
vn 0.000000 -0.000100 -1.000000
vn -0.000000 -0.000800 -1.000000
vn 0.000000 0.000800 -1.000000
vn -0.000200 0.002200 -1.000000
vn 0.000100 -0.001000 -1.000000
vn 0.000000 0.001200 -1.000000
vn -0.000300 0.002600 -1.000000
vn 0.000100 -0.000900 -1.000000
vn -0.000100 0.000500 -1.000000
vn 0.000000 -0.000300 -1.000000
vn -0.000000 -0.000200 -1.000000
vn -0.000000 0.000300 -1.000000
vn 0.000000 0.000100 -1.000000
vn 0.000100 -0.000300 -1.000000
vn -0.174400 0.984700 0.000000
vn 0.070400 -0.997500 0.000000
vn 0.568300 -0.822800 0.000000
vn 0.786000 0.618300 0.000000
vn 0.447700 -0.894200 0.000000
vn -0.450600 0.892700 0.000000
vn 0.843600 0.537000 0.000000
vn 0.057800 -0.998300 0.000000
vn 0.971600 0.236600 0.000000
vn 0.454000 0.891000 0.000000
vn 0.668900 -0.743400 0.000000
vn -0.998500 0.055400 0.000000
vn -0.949500 0.313700 0.000000
vn 0.852100 -0.523400 0.000000
vn -0.998600 -0.052100 0.000000
vn 0.998200 0.060500 0.000000
vn 0.287900 -0.957700 0.000000
vn -0.063000 -0.998000 0.000000
vn 0.818000 -0.575300 0.000000
vn -0.794500 0.607200 0.000000
vn -0.294500 -0.955600 0.000000
vn -0.580200 -0.814500 0.000000
vn 0.655200 0.755400 0.000000
vn 0.893600 -0.448800 0.000000
vn -0.729200 -0.684300 0.000000
vn 0.238400 0.971200 0.000000
vn -0.220100 0.975500 0.000000
vn 0.458700 -0.888600 0.000000
vn -0.305700 0.952100 0.000000
vn -0.583000 0.812500 0.000000
vn -0.763700 0.645500 0.000000
vn 0.530700 -0.847500 0.000000
vn 0.766200 0.642500 0.000000
vn 0.485300 -0.874300 0.000000
vn -0.025700 0.999700 0.000000
vn 0.830000 -0.557800 0.000000
vn -0.175900 -0.984400 0.000000
vn 0.329200 0.944300 0.000000
vn -0.998900 0.046600 0.000000
vn 0.107200 -0.994200 0.000000
vn -0.373000 0.927800 0.000000
vn 0.708700 -0.705500 0.000000
vn 0.995500 0.094600 0.000000
vn 0.983100 0.183100 0.000000
vn 0.946000 -0.324300 0.000000
vn -0.985200 0.171300 0.000000
vn -0.631500 -0.775400 0.000000
vn -0.920400 -0.391100 0.000000
vn -0.193800 -0.981000 0.000000
vn 0.944000 -0.330100 0.000000
vn -0.690600 -0.723200 0.000000
vn -0.918700 0.394900 0.000000
vn -0.942200 -0.334900 0.000000
vn -0.263000 0.964800 0.000000
vn -0.664800 0.747000 0.000000
vn 0.765300 0.643600 0.000000
vn -0.745200 0.666900 0.000000
vn 0.514700 -0.857300 0.000000
vn 0.338300 -0.941000 0.000000
vn -0.180200 0.983600 0.000000
vn -0.076700 0.997100 0.000000
vn -0.956500 0.291600 0.000000
vn -0.057900 -0.998300 0.000000
vn 0.674600 0.738200 0.000000
vn 0.347700 -0.937600 0.000000
vn 0.754100 -0.656700 0.000000
vn -0.402700 0.915300 0.000000
vn -0.990300 0.138600 0.000000
vn 0.916700 -0.399500 0.000000
vn 0.580700 -0.814100 0.000000
vn -0.979400 -0.201900 0.000000
vn 0.198600 0.980100 0.000000
vn 0.746500 -0.665400 0.000000
vn 0.856100 0.516700 0.000000
vn -0.326900 -0.945100 0.000000
vn -0.961500 -0.274700 0.000000
vn 0.952400 0.304900 0.000000
vn 0.164000 -0.986500 0.000000
vn 0.979300 -0.202600 0.000000
vn -0.887000 -0.461800 0.000000
vn 0.388800 0.921300 0.000000
vn -0.882100 0.471100 0.000000
vn -0.524800 -0.851200 0.000000
vn -0.785200 -0.619300 0.000000
vn -0.552600 0.833400 0.000000
vn -0.693100 0.720900 0.000000
vn -0.058400 0.998300 0.000000
vn 0.999100 -0.041500 0.000000
vn 0.985800 -0.167900 0.000000
vn -0.303000 0.953000 0.000000
vn 0.208200 -0.978100 0.000000
vn 0.401600 -0.915800 0.000000
vn -0.126500 0.992000 0.000000
vn 0.666800 -0.745200 0.000000
vn -0.910600 0.413400 0.000000
vn 0.569900 0.821700 0.000000
vn 0.536900 -0.843700 0.000000
vn -0.428600 0.903500 0.000000
vn 0.626500 -0.779400 0.000000
vn 0.017100 -0.999900 0.000000
vn -0.997800 -0.066800 0.000000
vn -0.973700 0.228000 0.000000
vn 0.065800 0.997800 0.000000
vn 0.925300 0.379300 0.000000
vn -0.986900 -0.161100 0.000000
vn 0.885200 -0.465300 0.000000
vn 0.905800 0.423700 0.000000
vn 0.225400 -0.974300 0.000000
vn -0.457400 -0.889200 0.000000
vn -0.840400 0.542000 0.000000
vn 0.997700 -0.068400 0.000000
vn 0.782800 -0.622300 0.000000
vn 0.528700 0.848800 0.000000
vn -0.411600 -0.911300 0.000000
vn 0.080500 0.996800 0.000000
vn -0.815200 -0.579100 0.000000
vn -0.431400 0.902200 0.000000
vn -0.861900 -0.507200 0.000000
vn -0.638800 0.769300 0.000000
vn -0.339800 0.940500 0.000000
vn -0.846200 0.532800 0.000000
vn 0.766300 0.642500 0.000000
usemtl None
s off
f 2//1 73//1 1//1
f 3//1 73//1 2//1
f 4//1 73//1 3//1
f 4//1 72//1 73//1
f 4//1 71//1 72//1
f 5//1 71//1 4//1
f 5//1 70//1 71//1
f 5//1 69//1 70//1
f 6//1 69//1 5//1
f 6//1 68//1 69//1
f 6//1 67//1 68//1
f 7//1 67//1 6//1
f 7//1 66//1 67//1
f 7//1 65//1 66//1
f 8//1 65//1 7//1
f 8//1 64//1 65//1
f 9//1 64//1 8//1
f 9//1 63//1 64//1
f 9//1 62//1 63//1
f 10//1 62//1 9//1
f 50//1 48//1 49//1
f 51//1 48//1 50//1
f 52//1 48//1 51//1
f 52//1 47//1 48//1
f 53//1 47//1 52//1
f 54//1 47//1 53//1
f 10//1 61//1 62//1
f 55//1 47//1 54//1
f 55//1 46//1 47//1
f 56//1 46//1 55//1
f 57//1 46//1 56//1
f 58//1 46//1 57//1
f 58//1 45//1 46//1
f 59//1 45//1 58//1
f 60//1 45//1 59//1
f 61//1 45//1 60//1
f 61//1 44//1 45//1
f 10//1 44//1 61//1
f 11//1 44//1 10//1
f 11//1 43//1 44//1
f 11//1 42//1 43//1
f 12//1 83//1 11//1
f 83//1 84//1 11//1
f 84//1 42//1 11//1
f 84//1 85//1 42//1
f 85//1 86//1 42//1
f 86//1 41//1 42//1
f 87//1 41//1 86//1
f 88//1 41//1 87//1
f 12//1 82//1 83//1
f 12//1 81//1 82//1
f 89//1 41//1 88//1
f 89//1 40//1 41//1
f 12//1 80//1 81//1
f 12//1 79//1 80//1
f 90//1 40//1 89//1
f 12//1 78//1 79//1
f 91//1 40//1 90//1
f 12//1 77//1 78//1
f 12//1 76//1 77//1
f 92//1 40//1 91//1
f 12//1 75//1 76//1
f 13//1 75//1 12//1
f 92//1 39//1 40//1
f 13//1 74//1 75//1
f 93//1 39//1 92//1
f 13//1 121//1 74//1
f 94//1 39//1 93//1
f 95//1 39//1 94//1
f 95//1 38//1 39//1
f 13//1 120//1 121//1
f 96//1 38//1 95//1
f 14//1 120//1 13//1
f 97//1 38//1 96//1
f 97//1 37//1 38//1
f 14//1 119//1 120//1
f 98//1 37//1 97//1
f 15//1 119//1 14//1
f 99//1 37//1 98//1
f 99//1 36//1 37//1
f 15//1 118//1 119//1
f 100//1 36//1 99//1
f 15//1 117//1 118//1
f 100//1 35//1 36//1
f 16//1 117//1 15//1
f 101//1 35//1 100//1
f 102//1 35//1 101//1
f 16//1 116//1 117//1
f 102//1 34//1 35//1
f 103//1 34//1 102//1
f 17//1 116//1 16//1
f 17//1 115//1 116//1
f 104//1 34//1 103//1
f 17//1 114//1 115//1
f 104//1 33//1 34//1
f 105//1 33//1 104//1
f 18//1 114//1 17//1
f 18//1 113//1 114//1
f 106//1 33//1 105//1
f 107//1 33//1 106//1
f 18//1 112//1 113//1
f 107//1 32//1 33//1
f 108//1 32//1 107//1
f 18//1 111//1 112//1
f 109//1 32//1 108//1
f 18//1 110//1 111//1
f 110//1 32//1 109//1
f 18//1 32//1 110//1
f 19//1 32//1 18//1
f 19//1 31//1 32//1
f 20//1 31//1 19//1
f 20//1 30//1 31//1
f 21//1 30//1 20//1
f 21//1 29//1 30//1
f 22//1 29//1 21//1
f 22//1 28//1 29//1
f 23//1 28//1 22//1
f 23//1 27//1 28//1
f 24//1 27//1 23//1
f 24//1 26//1 27//1
f 25//1 26//1 24//1
f 122//2 194//2 123//2
f 123//2 194//2 124//2
f 124//2 194//2 125//2
f 194//2 193//2 125//2
f 193//2 192//2 125//2
f 125//2 192//2 126//2
f 192//3 191//3 126//3
f 191//2 190//2 126//2
f 126//2 190//2 127//2
f 190//2 189//2 127//2
f 189//2 188//2 127//2
f 127//2 188//2 128//2
f 188//2 187//2 128//2
f 187//2 186//2 128//2
f 128//2 186//2 129//2
f 186//2 185//2 129//2
f 129//2 185//2 130//2
f 185//2 184//2 130//2
f 184//2 183//2 130//2
f 130//2 183//2 131//2
f 170//4 169//4 171//4
f 171//5 169//5 172//5
f 172//2 169//2 173//2
f 169//2 168//2 173//2
f 173//2 168//2 174//2
f 174//2 168//2 175//2
f 183//2 182//2 131//2
f 175//2 168//2 176//2
f 168//2 167//2 176//2
f 176//2 167//2 177//2
f 177//2 167//2 178//2
f 178//2 167//2 179//2
f 167//2 166//2 179//2
f 179//2 166//2 180//2
f 180//2 166//2 181//2
f 181//2 166//2 182//2
f 166//2 165//2 182//2
f 182//2 165//2 131//2
f 131//2 165//2 132//2
f 165//2 164//2 132//2
f 164//2 163//2 132//2
f 132//2 204//2 133//2
f 132//2 205//2 204//2
f 132//2 163//2 205//2
f 163//6 206//6 205//6
f 163//7 207//7 206//7
f 163//2 162//2 207//2
f 207//8 162//8 208//8
f 208//2 162//2 209//2
f 204//9 203//9 133//9
f 203//10 202//10 133//10
f 209//2 162//2 210//2
f 162//2 161//2 210//2
f 202//11 201//11 133//11
f 201//12 200//12 133//12
f 210//13 161//13 211//13
f 200//14 199//14 133//14
f 211//15 161//15 212//15
f 199//2 198//2 133//2
f 198//2 197//2 133//2
f 212//2 161//2 213//2
f 197//2 196//2 133//2
f 133//2 196//2 134//2
f 161//2 160//2 213//2
f 196//16 195//16 134//16
f 213//2 160//2 214//2
f 195//2 242//2 134//2
f 214//2 160//2 215//2
f 215//2 160//2 216//2
f 160//2 159//2 216//2
f 242//2 241//2 134//2
f 216//2 159//2 217//2
f 134//2 241//2 135//2
f 217//2 159//2 218//2
f 159//2 158//2 218//2
f 241//2 240//2 135//2
f 218//2 158//2 219//2
f 135//2 240//2 136//2
f 219//2 158//2 220//2
f 158//2 157//2 220//2
f 240//2 239//2 136//2
f 220//2 157//2 221//2
f 239//2 238//2 136//2
f 157//2 156//2 221//2
f 136//2 238//2 137//2
f 221//2 156//2 222//2
f 222//2 156//2 223//2
f 238//2 237//2 137//2
f 156//2 155//2 223//2
f 223//2 155//2 224//2
f 137//2 237//2 138//2
f 237//2 236//2 138//2
f 224//2 155//2 225//2
f 236//2 235//2 138//2
f 155//2 154//2 225//2
f 225//2 154//2 226//2
f 138//2 235//2 139//2
f 235//2 234//2 139//2
f 226//2 154//2 227//2
f 227//2 154//2 228//2
f 234//2 233//2 139//2
f 154//2 153//2 228//2
f 228//2 153//2 229//2
f 233//2 232//2 139//2
f 229//2 153//2 230//2
f 232//2 231//2 139//2
f 230//2 153//2 231//2
f 231//2 153//2 139//2
f 139//2 153//2 140//2
f 153//2 152//2 140//2
f 140//2 152//2 141//2
f 152//2 151//2 141//2
f 141//2 151//2 142//2
f 151//3 150//3 142//3
f 142//2 150//2 143//2
f 150//15 149//15 143//15
f 143//2 149//2 144//2
f 149//2 148//2 144//2
f 144//2 148//2 145//2
f 148//2 147//2 145//2
f 145//2 147//2 146//2
f 52//17 173//17 174//17
f 25//18 146//18 147//18
f 30//19 29//19 150//19
f 73//20 194//20 122//20
f 77//21 198//21 199//21
f 60//22 181//22 182//22
f 41//23 162//23 163//23
f 85//24 84//24 205//24
f 118//25 239//25 240//25
f 45//26 166//26 167//26
f 69//27 190//27 191//27
f 98//28 219//28 220//28
f 9//29 130//29 131//29
f 64//30 185//30 186//30
f 13//31 134//31 135//31
f 37//32 158//32 159//32
f 80//33 201//33 202//33
f 24//34 145//34 146//34
f 66//35 65//35 186//35
f 5//36 126//36 127//36
f 88//37 209//37 210//37
f 20//38 141//38 142//38
f 114//39 235//39 236//39
f 33//40 154//40 155//40
f 92//41 213//41 214//41
f 111//42 232//42 233//42
f 53//43 174//43 175//43
f 28//44 149//44 150//44
f 107//45 228//45 229//45
f 1//46 122//46 123//46
f 103//47 224//47 225//47
f 72//48 193//48 194//48
f 42//49 163//49 164//49
f 76//50 197//50 198//50
f 49//51 170//51 171//51
f 32//52 153//52 154//52
f 87//53 208//53 209//53
f 46//54 167//54 168//54
f 13//55 12//55 133//55
f 83//56 204//56 205//56
f 57//57 178//57 179//57
f 68//58 189//58 190//58
f 119//59 240//59 241//59
f 38//60 159//60 160//60
f 61//61 182//61 183//61
f 99//62 220//62 221//62
f 91//63 212//63 213//63
f 16//64 137//64 138//64
f 23//65 144//65 145//65
f 35//66 34//66 155//66
f 19//67 140//67 141//67
f 9//68 8//68 129//68
f 95//69 216//69 217//69
f 54//70 175//70 176//70
f 104//71 225//71 226//71
f 115//72 236//72 237//72
f 4//73 125//73 126//73
f 75//74 196//74 197//74
f 27//75 148//75 149//75
f 108//76 229//76 230//76
f 51//77 50//77 171//77
f 100//78 221//78 222//78
f 87//79 86//79 207//79
f 43//80 164//80 165//80
f 80//81 79//81 200//81
f 31//82 152//82 153//82
f 58//83 179//83 180//83
f 11//84 132//84 133//84
f 62//85 183//85 184//85
f 71//86 192//86 193//86
f 96//87 217//87 218//87
f 47//88 168//88 169//88
f 67//89 188//89 189//89
f 116//90 237//90 238//90
f 22//91 143//91 144//91
f 15//92 136//92 137//92
f 39//93 160//93 161//93
f 82//94 203//94 204//94
f 35//95 156//95 157//95
f 94//96 215//96 216//96
f 112//97 233//97 234//97
f 7//98 128//98 129//98
f 91//99 90//99 211//99
f 18//100 139//100 140//100
f 105//101 226//101 227//101
f 3//102 124//102 125//102
f 109//103 230//103 231//103
f 121//104 120//104 241//104
f 121//105 242//105 195//105
f 55//106 176//106 177//106
f 26//107 147//107 148//107
f 78//108 199//108 200//108
f 51//109 172//109 173//109
f 30//110 151//110 152//110
f 101//111 222//111 223//111
f 44//112 165//112 166//112
f 75//113 74//113 195//113
f 59//114 180//114 181//114
f 71//115 70//115 191//115
f 85//116 206//116 207//116
f 97//117 218//117 219//117
f 10//118 131//118 132//118
f 48//119 169//119 170//119
f 117//120 238//120 239//120
f 14//121 135//121 136//121
f 64//122 63//122 184//122
f 40//123 161//123 162//123
f 82//124 81//124 202//124
f 21//125 142//125 143//125
f 6//126 127//126 128//126
f 36//127 157//127 158//127
f 66//128 187//128 188//128
f 113//129 234//129 235//129
f 89//130 210//130 211//130
f 110//131 231//131 232//131
f 93//132 214//132 215//132
f 106//133 227//133 228//133
f 17//134 138//134 139//134
f 2//135 123//135 124//135
f 56//136 177//136 178//136
f 102//137 223//137 224//137
f 53//17 52//17 174//17
f 26//18 25//18 147//18
f 151//19 30//19 150//19
f 1//20 73//20 122//20
f 78//21 77//21 199//21
f 61//22 60//22 182//22
f 42//23 41//23 163//23
f 206//24 85//24 205//24
f 119//25 118//25 240//25
f 46//26 45//26 167//26
f 70//27 69//27 191//27
f 99//28 98//28 220//28
f 10//29 9//29 131//29
f 65//30 64//30 186//30
f 14//31 13//31 135//31
f 38//32 37//32 159//32
f 81//33 80//33 202//33
f 25//34 24//34 146//34
f 187//35 66//35 186//35
f 6//36 5//36 127//36
f 89//37 88//37 210//37
f 21//38 20//38 142//38
f 115//39 114//39 236//39
f 34//40 33//40 155//40
f 93//41 92//41 214//41
f 112//42 111//42 233//42
f 54//43 53//43 175//43
f 29//44 28//44 150//44
f 108//45 107//45 229//45
f 2//46 1//46 123//46
f 104//47 103//47 225//47
f 73//48 72//48 194//48
f 43//138 42//138 164//138
f 77//50 76//50 198//50
f 50//51 49//51 171//51
f 33//52 32//52 154//52
f 88//53 87//53 209//53
f 47//54 46//54 168//54
f 134//55 13//55 133//55
f 84//56 83//56 205//56
f 58//57 57//57 179//57
f 69//58 68//58 190//58
f 120//59 119//59 241//59
f 39//60 38//60 160//60
f 62//61 61//61 183//61
f 100//62 99//62 221//62
f 92//63 91//63 213//63
f 17//64 16//64 138//64
f 24//65 23//65 145//65
f 156//66 35//66 155//66
f 20//67 19//67 141//67
f 130//68 9//68 129//68
f 96//69 95//69 217//69
f 55//70 54//70 176//70
f 105//71 104//71 226//71
f 116//72 115//72 237//72
f 5//73 4//73 126//73
f 76//74 75//74 197//74
f 28//75 27//75 149//75
f 109//76 108//76 230//76
f 172//77 51//77 171//77
f 101//78 100//78 222//78
f 208//79 87//79 207//79
f 44//80 43//80 165//80
f 201//81 80//81 200//81
f 32//82 31//82 153//82
f 59//83 58//83 180//83
f 12//84 11//84 133//84
f 63//85 62//85 184//85
f 72//86 71//86 193//86
f 97//87 96//87 218//87
f 48//88 47//88 169//88
f 68//89 67//89 189//89
f 117//90 116//90 238//90
f 23//91 22//91 144//91
f 16//92 15//92 137//92
f 40//93 39//93 161//93
f 83//94 82//94 204//94
f 36//95 35//95 157//95
f 95//96 94//96 216//96
f 113//97 112//97 234//97
f 8//98 7//98 129//98
f 212//99 91//99 211//99
f 19//100 18//100 140//100
f 106//101 105//101 227//101
f 4//102 3//102 125//102
f 110//103 109//103 231//103
f 242//104 121//104 241//104
f 74//105 121//105 195//105
f 56//106 55//106 177//106
f 27//107 26//107 148//107
f 79//108 78//108 200//108
f 52//109 51//109 173//109
f 31//110 30//110 152//110
f 102//111 101//111 223//111
f 45//112 44//112 166//112
f 196//113 75//113 195//113
f 60//114 59//114 181//114
f 192//115 71//115 191//115
f 86//116 85//116 207//116
f 98//117 97//117 219//117
f 11//118 10//118 132//118
f 49//119 48//119 170//119
f 118//120 117//120 239//120
f 15//121 14//121 136//121
f 185//122 64//122 184//122
f 41//123 40//123 162//123
f 203//124 82//124 202//124
f 22//125 21//125 143//125
f 7//126 6//126 128//126
f 37//127 36//127 158//127
f 67//128 66//128 188//128
f 114//129 113//129 235//129
f 90//130 89//130 211//130
f 111//131 110//131 232//131
f 94//132 93//132 215//132
f 107//133 106//133 228//133
f 18//134 17//134 139//134
f 3//135 2//135 124//135
f 57//136 56//136 178//136
f 103//137 102//137 224//137
